<svg xmlns="http://www.w3.org/2000/svg" xmlns:xlink="http://www.w3.org/1999/xlink" version="1.1" style="width:1977px;height:1284px;background:#FFFFFF;" width="1977px" height="1284px" viewBox="0 0 1977 1284" zoomAndPan="magnify" preserveAspectRatio="none" contentStyleType="text/css"><?plantuml 1.2026.7beta3?><defs/><g><g class="title" data-source-line="1"><text x="855.2" y="20.8889" fill="#000000" font-size="14" lengthAdjust="spacing" textLength="264.6" font-weight="700" font-family="sans-serif">HomeSkolar — Diagramme de classes métier</text></g><!--cluster COMPTES--><g class="cluster" data-qualified-name="COMPTES" id="ent0001" data-source-line="25"><rect x="1116" y="42" width="493" height="433" fill="#E0F2FE" style="stroke:#64748B;stroke-width:1.5;" rx="2.5" ry="2.5"/><text x="1285.85" y="53.3333" fill="#000000" font-size="12" lengthAdjust="spacing" textLength="153.3" font-weight="700" font-family="sans-serif">Comptes et accompagnement</text></g><!--cluster COMMUNICATION--><g class="cluster" data-qualified-name="COMMUNICATION" id="ent0015" data-source-line="56"><rect x="7" y="540" width="771" height="379" fill="#DCFCE7" style="stroke:#64748B;stroke-width:1.5;" rx="2.5" ry="2.5"/><text x="350.8" y="551.3333" fill="#000000" font-size="12" lengthAdjust="spacing" textLength="83.4" font-weight="700" font-family="sans-serif">Communication</text></g><!--cluster CALENDRIER--><g class="cluster" data-qualified-name="CALENDRIER" id="ent0026" data-source-line="98"><rect x="1649" y="342" width="319" height="337" fill="#FEF3C7" style="stroke:#64748B;stroke-width:1.5;" rx="2.5" ry="2.5"/><text x="1780.7875" y="353.3333" fill="#000000" font-size="12" lengthAdjust="spacing" textLength="55.425" font-weight="700" font-family="sans-serif">Calendrier</text></g><!--cluster TACHES--><g class="cluster" data-qualified-name="TACHES" id="ent0032" data-source-line="119"><rect x="818" y="750" width="623" height="416" fill="#FFE4E6" style="stroke:#64748B;stroke-width:1.5;" rx="2.5" ry="2.5"/><text x="1109.8125" y="761.3333" fill="#000000" font-size="12" lengthAdjust="spacing" textLength="39.375" font-weight="700" font-family="sans-serif">Tâches</text></g><!--class Utilisateur--><g class="entity" data-qualified-name="COMPTES.Utilisateur" id="ent0002" data-source-line="26"><rect x="1140.3" y="81" width="389.4" height="86" fill="#F8FAFC" style="stroke:#334155;stroke-width:0.5;" rx="2.5" ry="2.5"/><text x="1308.3" y="95.3333" fill="#1E293B" font-size="12" lengthAdjust="spacing" textLength="53.4" font-style="italic" font-family="sans-serif">Utilisateur</text><line x1="1141.3" y1="103" x2="1528.7" y2="103" style="stroke:#334155;stroke-width:0.5;"/><text x="1146.3" y="116.3333" fill="#1E293B" font-size="12" lengthAdjust="spacing" textLength="88.05" font-family="sans-serif">-identifiant: UUID</text><text x="1146.3" y="128.3333" fill="#1E293B" font-size="12" lengthAdjust="spacing" textLength="156.675" font-family="sans-serif">-mot_de_passe_hache: String</text><line x1="1141.3" y1="135" x2="1528.7" y2="135" style="stroke:#334155;stroke-width:0.5;"/><text x="1146.3" y="148.3333" fill="#1E293B" font-size="12" lengthAdjust="spacing" textLength="190.425" font-family="sans-serif">+modifier_mot_de_passe(): Boolean</text><text x="1146.3" y="160.3333" fill="#1E293B" font-size="12" lengthAdjust="spacing" textLength="377.4" font-family="sans-serif">+modifier_donnees_personnelles(donnees: DonneesPersonnelles): void</text></g><!--class Eleve--><g class="entity" data-qualified-name="COMPTES.Eleve" id="ent0003" data-source-line="33"><rect x="1445.96" y="243" width="36.075" height="22" fill="#F8FAFC" style="stroke:#334155;stroke-width:0.5;" rx="2.5" ry="2.5"/><text x="1448.96" y="257.3333" fill="#1E293B" font-size="12" lengthAdjust="spacing" textLength="30.075" font-family="sans-serif">Eleve</text></g><!--class Tuteur--><g class="entity" data-qualified-name="COMPTES.Tuteur" id="ent0004" data-source-line="34"><rect x="1170.68" y="243" width="40.65" height="22" fill="#F8FAFC" style="stroke:#334155;stroke-width:0.5;" rx="2.5" ry="2.5"/><text x="1173.68" y="257.3333" fill="#1E293B" font-size="12" lengthAdjust="spacing" textLength="34.65" font-family="sans-serif">Tuteur</text></g><!--class DonneesPersonnelles--><g class="entity" data-qualified-name="COMPTES.DonneesPersonnelles" id="ent0005" data-source-line="36"><rect x="1246.65" y="227" width="164.7" height="54" fill="#F8FAFC" style="stroke:#334155;stroke-width:0.5;" rx="2.5" ry="2.5"/><text x="1291.95" y="241.3333" fill="#000000" font-size="12" lengthAdjust="spacing" textLength="74.1" font-style="italic" font-family="sans-serif">«value object»</text><text x="1270.2375" y="253.3333" fill="#1E293B" font-size="12" lengthAdjust="spacing" textLength="117.525" font-family="sans-serif">DonneesPersonnelles</text><line x1="1247.65" y1="261" x2="1410.35" y2="261" style="stroke:#334155;stroke-width:0.5;"/><text x="1252.65" y="274.3333" fill="#1E293B" font-size="12" lengthAdjust="spacing" textLength="152.7" font-family="sans-serif">-champs: Map&lt;String, String></text></g><!--class Accompagnement--><g class="entity" data-qualified-name="COMPTES.Accompagnement" id="ent0006" data-source-line="40"><rect x="1139.66" y="409" width="102.675" height="42" fill="#F8FAFC" style="stroke:#334155;stroke-width:0.5;" rx="2.5" ry="2.5"/><text x="1142.66" y="423.3333" fill="#1E293B" font-size="12" lengthAdjust="spacing" textLength="96.675" font-family="sans-serif">Accompagnement</text><line x1="1140.66" y1="431" x2="1241.335" y2="431" style="stroke:#334155;stroke-width:0.5;"/><text x="1145.66" y="444.3333" fill="#1E293B" font-size="12" lengthAdjust="spacing" textLength="88.05" font-family="sans-serif">-identifiant: UUID</text></g><g class="entity" data-qualified-name="COMPTES.GMN12" id="ent0013" data-source-line="51"><path d="M1277,413 L1277,447 L1577,447 L1577,423 L1567,413 L1277,413" style="stroke:#B7791F;stroke-width:0.5;" fill="#FFF7D6"/><path d="M1567,413 L1567,423 L1577,423 L1567,413" style="stroke:#B7791F;stroke-width:1;" fill="#FFF7D6"/><text x="1283" y="427.3333" fill="#422006" font-size="12" lengthAdjust="spacing" textLength="230.025" font-family="sans-serif">H-01 : un tuteur peut encadrer plusieurs élèves.</text><text x="1283" y="439.3333" fill="#422006" font-size="12" lengthAdjust="spacing" textLength="279" font-family="sans-serif">L'élève possède exactement un accompagnement actif.</text></g><!--class Conversation--><g class="entity" data-qualified-name="COMMUNICATION.Conversation" id="ent0016" data-source-line="57"><rect x="30.84" y="603" width="254.325" height="62" fill="#F8FAFC" style="stroke:#334155;stroke-width:0.5;" rx="2.5" ry="2.5"/><text x="122.64" y="617.3333" fill="#1E293B" font-size="12" lengthAdjust="spacing" textLength="70.725" font-family="sans-serif">Conversation</text><line x1="31.84" y1="625" x2="284.165" y2="625" style="stroke:#334155;stroke-width:0.5;"/><text x="36.84" y="638.3333" fill="#1E293B" font-size="12" lengthAdjust="spacing" textLength="88.05" font-family="sans-serif">-identifiant: UUID</text><line x1="31.84" y1="645" x2="284.165" y2="645" style="stroke:#334155;stroke-width:0.5;"/><text x="36.84" y="658.3333" fill="#1E293B" font-size="12" lengthAdjust="spacing" textLength="242.325" font-family="sans-serif">+envoyer_message(contenu: String): Message</text></g><!--class Message--><g class="entity" data-qualified-name="COMMUNICATION.Message" id="ent0017" data-source-line="62"><rect x="235.5" y="749" width="159" height="146" fill="#F8FAFC" style="stroke:#334155;stroke-width:0.5;" rx="2.5" ry="2.5"/><text x="290.6625" y="763.3333" fill="#1E293B" font-size="12" lengthAdjust="spacing" textLength="48.675" font-family="sans-serif">Message</text><line x1="236.5" y1="771" x2="393.5" y2="771" style="stroke:#334155;stroke-width:0.5;"/><text x="241.5" y="784.3333" fill="#1E293B" font-size="12" lengthAdjust="spacing" textLength="88.05" font-family="sans-serif">-identifiant: UUID</text><text x="241.5" y="796.3333" fill="#1E293B" font-size="12" lengthAdjust="spacing" textLength="94.65" font-family="sans-serif">-auteur: Utilisateur</text><text x="241.5" y="808.3333" fill="#1E293B" font-size="12" lengthAdjust="spacing" textLength="81.3" font-family="sans-serif">-contenu: String</text><text x="241.5" y="820.3333" fill="#1E293B" font-size="12" lengthAdjust="spacing" textLength="132" font-family="sans-serif">-date_creation: DateTime</text><text x="241.5" y="832.3333" fill="#1E293B" font-size="12" lengthAdjust="spacing" textLength="83.4" font-family="sans-serif">-est_lu: Boolean</text><text x="241.5" y="844.3333" fill="#1E293B" font-size="12" lengthAdjust="spacing" textLength="112.8" font-family="sans-serif">-est_epingle: Boolean</text><line x1="236.5" y1="851" x2="393.5" y2="851" style="stroke:#334155;stroke-width:0.5;"/><text x="241.5" y="864.3333" fill="#1E293B" font-size="12" lengthAdjust="spacing" textLength="147" font-family="sans-serif">+marquer_comme_lu(): void</text><text x="241.5" y="876.3333" fill="#1E293B" font-size="12" lengthAdjust="spacing" textLength="83.1" font-family="sans-serif">+epingler(): void</text><text x="241.5" y="888.3333" fill="#1E293B" font-size="12" lengthAdjust="spacing" textLength="102.45" font-family="sans-serif">+desepingler(): void</text></g><!--class Notification--><g class="entity" data-qualified-name="COMMUNICATION.Notification" id="ent0018" data-source-line="74"><rect x="569.16" y="579" width="165.675" height="110" fill="#F8FAFC" style="stroke:#334155;stroke-width:0.5;" rx="2.5" ry="2.5"/><text x="622.2975" y="593.3333" fill="#1E293B" font-size="12" lengthAdjust="spacing" textLength="59.4" font-family="sans-serif">Notification</text><line x1="570.16" y1="601" x2="733.835" y2="601" style="stroke:#334155;stroke-width:0.5;"/><text x="575.16" y="614.3333" fill="#1E293B" font-size="12" lengthAdjust="spacing" textLength="88.05" font-family="sans-serif">-identifiant: UUID</text><text x="575.16" y="626.3333" fill="#1E293B" font-size="12" lengthAdjust="spacing" textLength="122.7" font-family="sans-serif">-destinataire: Utilisateur</text><text x="575.16" y="638.3333" fill="#1E293B" font-size="12" lengthAdjust="spacing" textLength="116.025" font-family="sans-serif">-type: TypeNotification</text><text x="575.16" y="650.3333" fill="#1E293B" font-size="12" lengthAdjust="spacing" textLength="132" font-family="sans-serif">-date_creation: DateTime</text><text x="575.16" y="662.3333" fill="#1E293B" font-size="12" lengthAdjust="spacing" textLength="90.075" font-family="sans-serif">-est_lue: Boolean</text><line x1="570.16" y1="669" x2="733.835" y2="669" style="stroke:#334155;stroke-width:0.5;"/><text x="575.16" y="682.3333" fill="#1E293B" font-size="12" lengthAdjust="spacing" textLength="153.675" font-family="sans-serif">+marquer_comme_lue(): void</text></g><!--class TypeNotification--><g class="entity" data-qualified-name="COMMUNICATION.TypeNotification" id="ent0019" data-source-line="83"><rect x="585.17" y="795" width="133.65" height="54" fill="#F8FAFC" style="stroke:#334155;stroke-width:0.5;" rx="2.5" ry="2.5"/><text x="608.945" y="809.3333" fill="#1E293B" font-size="12" lengthAdjust="spacing" textLength="86.1" font-family="sans-serif">TypeNotification</text><line x1="586.17" y1="817" x2="717.82" y2="817" style="stroke:#334155;stroke-width:0.5;"/><text x="591.17" y="830.3333" fill="#1E293B" font-size="12" lengthAdjust="spacing" textLength="114.825" font-family="sans-serif">MESSAGE_NON_LU</text><text x="591.17" y="842.3333" fill="#1E293B" font-size="12" lengthAdjust="spacing" textLength="121.65" font-family="sans-serif">TACHE_A_REALISER</text></g><g class="entity" data-qualified-name="COMMUNICATION.GMN23" id="ent0024" data-source-line="93"><path d="M320.12,617 L320.12,651 A0,0 0 0 0 320.12,651 L533.87,651 A0,0 0 0 0 533.87,651 L533.87,638 L568.83,634 L533.87,630 L533.87,627 L523.87,617 L320.12,617 A0,0 0 0 0 320.12,617" style="stroke:#B7791F;stroke-width:0.5;" fill="#FFF7D6"/><path d="M523.87,617 L523.87,627 L533.87,627 L523.87,617" style="stroke:#B7791F;stroke-width:0.5;" fill="#FFF7D6"/><text x="326.12" y="631.3333" fill="#422006" font-size="12" lengthAdjust="spacing" textLength="185.4" font-family="sans-serif">H-05 / XOR : une notification concerne</text><text x="326.12" y="643.3333" fill="#422006" font-size="12" lengthAdjust="spacing" textLength="192.75" font-family="sans-serif">soit un message, soit une tâche de suivi.</text></g><!--class EvenementCalendrier--><g class="entity" data-qualified-name="CALENDRIER.EvenementCalendrier" id="ent0027" data-source-line="99"><rect x="1718.07" y="381" width="161.85" height="98" fill="#F8FAFC" style="stroke:#334155;stroke-width:0.5;" rx="2.5" ry="2.5"/><text x="1740.945" y="395.3333" fill="#1E293B" font-size="12" lengthAdjust="spacing" textLength="116.1" font-style="italic" font-family="sans-serif">EvenementCalendrier</text><line x1="1719.07" y1="403" x2="1878.92" y2="403" style="stroke:#334155;stroke-width:0.5;"/><text x="1724.07" y="416.3333" fill="#1E293B" font-size="12" lengthAdjust="spacing" textLength="88.05" font-family="sans-serif">-identifiant: UUID</text><text x="1724.07" y="428.3333" fill="#1E293B" font-size="12" lengthAdjust="spacing" textLength="58.575" font-family="sans-serif">-titre: String</text><text x="1724.07" y="440.3333" fill="#1E293B" font-size="12" lengthAdjust="spacing" textLength="119.325" font-family="sans-serif">-date_debut: DateTime</text><text x="1724.07" y="452.3333" fill="#1E293B" font-size="12" lengthAdjust="spacing" textLength="102" font-family="sans-serif">-date_fin: DateTime</text><line x1="1719.07" y1="459" x2="1878.92" y2="459" style="stroke:#334155;stroke-width:0.5;"/><text x="1724.07" y="472.3333" fill="#1E293B" font-size="12" lengthAdjust="spacing" textLength="149.85" font-family="sans-serif">+horaires_valides(): Boolean</text></g><!--class EvenementPersonnel--><g class="entity" data-qualified-name="CALENDRIER.EvenementPersonnel" id="ent0028" data-source-line="107"><rect x="1802.33" y="613" width="133.35" height="42" fill="#F8FAFC" style="stroke:#334155;stroke-width:0.5;" rx="2.5" ry="2.5"/><text x="1811.63" y="627.3333" fill="#1E293B" font-size="12" lengthAdjust="spacing" textLength="114.75" font-family="sans-serif">EvenementPersonnel</text><line x1="1803.33" y1="635" x2="1934.68" y2="635" style="stroke:#334155;stroke-width:0.5;"/><text x="1808.33" y="648.3333" fill="#1E293B" font-size="12" lengthAdjust="spacing" textLength="121.35" font-family="sans-serif">-proprietaire: Utilisateur</text></g><!--class Rencontre--><g class="entity" data-qualified-name="CALENDRIER.Rencontre" id="ent0029" data-source-line="111"><rect x="1672.79" y="613" width="94.425" height="42" fill="#F8FAFC" style="stroke:#334155;stroke-width:0.5;" rx="2.5" ry="2.5"/><text x="1692.3275" y="627.3333" fill="#1E293B" font-size="12" lengthAdjust="spacing" textLength="55.35" font-family="sans-serif">Rencontre</text><line x1="1673.79" y1="635" x2="1766.215" y2="635" style="stroke:#334155;stroke-width:0.5;"/><text x="1678.79" y="648.3333" fill="#1E293B" font-size="12" lengthAdjust="spacing" textLength="82.425" font-family="sans-serif">+planifier(): void</text></g><!--class ElementTravail--><g class="entity" data-qualified-name="TACHES.ElementTravail" id="ent0033" data-source-line="120"><rect x="975" y="789" width="144" height="66" fill="#F8FAFC" style="stroke:#334155;stroke-width:0.5;" rx="2.5" ry="2.5"/><text x="1006.95" y="803.3333" fill="#1E293B" font-size="12" lengthAdjust="spacing" textLength="80.1" font-style="italic" font-family="sans-serif">ElementTravail</text><line x1="976" y1="811" x2="1118" y2="811" style="stroke:#334155;stroke-width:0.5;"/><text x="981" y="824.3333" fill="#1E293B" font-size="12" lengthAdjust="spacing" textLength="88.05" font-family="sans-serif">-identifiant: UUID</text><text x="981" y="836.3333" fill="#1E293B" font-size="12" lengthAdjust="spacing" textLength="81.3" font-family="sans-serif">-contenu: String</text><text x="981" y="848.3333" fill="#1E293B" font-size="12" lengthAdjust="spacing" textLength="132" font-family="sans-serif">-date_creation: DateTime</text></g><!--class TacheSuivi--><g class="entity" data-qualified-name="TACHES.TacheSuivi" id="ent0034" data-source-line="126"><rect x="1043.45" y="967" width="161.1" height="62" fill="#F8FAFC" style="stroke:#334155;stroke-width:0.5;" rx="2.5" ry="2.5"/><text x="1094.2625" y="981.3333" fill="#1E293B" font-size="12" lengthAdjust="spacing" textLength="59.475" font-family="sans-serif">TacheSuivi</text><line x1="1044.45" y1="989" x2="1203.55" y2="989" style="stroke:#334155;stroke-width:0.5;"/><text x="1049.45" y="1002.3333" fill="#1E293B" font-size="12" lengthAdjust="spacing" textLength="99.375" font-family="sans-serif">-destinataire: Eleve</text><line x1="1044.45" y1="1009" x2="1203.55" y2="1009" style="stroke:#334155;stroke-width:0.5;"/><text x="1049.45" y="1022.3333" fill="#1E293B" font-size="12" lengthAdjust="spacing" textLength="149.1" font-family="sans-serif">+notifier_eleve(): Notification</text></g><!--class ElementPersonnel--><g class="entity" data-qualified-name="TACHES.ElementPersonnel" id="ent0035" data-source-line="131"><rect x="841.64" y="971" width="166.725" height="54" fill="#F8FAFC" style="stroke:#334155;stroke-width:0.5;" rx="2.5" ry="2.5"/><text x="875.9525" y="985.3333" fill="#1E293B" font-size="12" lengthAdjust="spacing" textLength="98.1" font-family="sans-serif">ElementPersonnel</text><line x1="842.64" y1="993" x2="1007.365" y2="993" style="stroke:#334155;stroke-width:0.5;"/><text x="847.64" y="1006.3333" fill="#1E293B" font-size="12" lengthAdjust="spacing" textLength="121.35" font-family="sans-serif">-proprietaire: Utilisateur</text><text x="847.64" y="1018.3333" fill="#1E293B" font-size="12" lengthAdjust="spacing" textLength="154.725" font-family="sans-serif">-type: TypeElementPersonnel</text></g><!--class TypeElementPersonnel--><g class="entity" data-qualified-name="TACHES.TypeElementPersonnel" id="ent0036" data-source-line="136"><rect x="859.6" y="1076" width="130.8" height="66" fill="#F8FAFC" style="stroke:#334155;stroke-width:0.5;" rx="2.5" ry="2.5"/><text x="862.6" y="1090.3333" fill="#1E293B" font-size="12" lengthAdjust="spacing" textLength="124.8" font-family="sans-serif">TypeElementPersonnel</text><line x1="860.6" y1="1098" x2="989.4" y2="1098" style="stroke:#334155;stroke-width:0.5;"/><text x="865.6" y="1111.3333" fill="#1E293B" font-size="12" lengthAdjust="spacing" textLength="40.8" font-family="sans-serif">TACHE</text><text x="865.6" y="1123.3333" fill="#1E293B" font-size="12" lengthAdjust="spacing" textLength="33.375" font-family="sans-serif">NOTE</text><text x="865.6" y="1135.3333" fill="#1E293B" font-size="12" lengthAdjust="spacing" textLength="37.275" font-family="sans-serif">MEMO</text></g><g class="entity" data-qualified-name="TACHES.GMN40" id="ent0041" data-source-line="147"><path d="M1239.44,981 L1239.44,994 L1204.8,998 L1239.44,1002 L1239.44,1015 A0,0 0 0 0 1239.44,1015 L1408.565,1015 A0,0 0 0 0 1408.565,1015 L1408.565,991 L1398.565,981 L1239.44,981 A0,0 0 0 0 1239.44,981" style="stroke:#B7791F;stroke-width:0.5;" fill="#FFF7D6"/><path d="M1398.565,981 L1398.565,991 L1408.565,991 L1398.565,981" style="stroke:#B7791F;stroke-width:0.5;" fill="#FFF7D6"/><text x="1245.44" y="995.3333" fill="#422006" font-size="12" lengthAdjust="spacing" textLength="144.975" font-family="sans-serif">H-02 : l'auteur autorisé à créer</text><text x="1245.44" y="1007.3333" fill="#422006" font-size="12" lengthAdjust="spacing" textLength="148.125" font-family="sans-serif">la tâche de suivi reste à valider.</text></g><!--reverse link Utilisateur to Eleve--><g class="link" data-entity-1="ent0002" data-entity-2="ent0003" id="lnk7" data-source-line="44" data-link-type="extension"><path d="M1390.3778,179.9479 C1417.2378,206.5979 1437.07,226.28 1453.48,242.56" style="stroke:#475569;stroke-width:1;" fill="none" id="Utilisateur-backto-Eleve" codeLine="44"/><polygon points="1377.6,167.27,1386.1518,184.2071,1394.6037,175.6886,1377.6,167.27" fill="none" style="stroke:#475569;stroke-width:1;stroke-linejoin:miter;stroke-miterlimit:10;"/></g><!--reverse link Utilisateur to Tuteur--><g class="link" data-entity-1="ent0002" data-entity-2="ent0004" id="lnk8" data-source-line="45" data-link-type="extension"><path d="M1273.9969,179.2288 C1244.0169,205.8788 1221.06,226.28 1202.74,242.56" style="stroke:#475569;stroke-width:1;" fill="none" id="Utilisateur-backto-Tuteur" codeLine="45"/><polygon points="1287.45,167.27,1270.0106,174.7445,1277.9832,183.7132,1287.45,167.27" fill="none" style="stroke:#475569;stroke-width:1;stroke-linejoin:miter;stroke-miterlimit:10;"/></g><!--reverse link Utilisateur to DonneesPersonnelles--><g class="link" data-entity-1="ent0002" data-entity-2="ent0005" id="lnk9" data-source-line="46" data-link-type="composition"><path d="M1332.4591,179.2569 C1331.5391,198.9169 1331.03,209.69 1330.23,226.82" style="stroke:#475569;stroke-width:1;" fill="none" id="Utilisateur-backto-DonneesPersonnelles" codeLine="46"/><polygon points="1333.02,167.27,1328.7439,173.0765,1332.4591,179.2569,1336.7352,173.4504,1333.02,167.27" fill="#475569" style="stroke:#475569;stroke-width:1;stroke-linejoin:miter;stroke-miterlimit:10;"/><text x="1332.82" y="200.3333" fill="#000000" font-size="12" lengthAdjust="spacing" textLength="45.375" font-family="sans-serif">possède</text><text x="1326.2801" y="184.4557" fill="#000000" font-size="12" lengthAdjust="spacing" textLength="6.675" font-family="sans-serif">1</text><text x="1323.8987" y="216.4805" fill="#000000" font-size="12" lengthAdjust="spacing" textLength="6.675" font-family="sans-serif">1</text></g><!--link Eleve to Accompagnement--><g class="link" data-entity-1="ent0003" data-entity-2="ent0006" id="lnk10" data-source-line="47" data-link-type="association"><path d="M1450.17,265.28 C1440.38,272.54 1429,281 1429,281 C1429,281 1259,326 1259,326 C1259,326 1224.25,378.63 1204.43,408.65" style="stroke:#475569;stroke-width:1;" fill="none" id="Eleve-Accompagnement" codeLine="47"/><text x="1339.9" y="314.3333" fill="#000000" font-size="12" lengthAdjust="spacing" textLength="61.425" font-family="sans-serif">bénéficie de</text><text x="1436.9556" y="282.1733" fill="#000000" font-size="12" lengthAdjust="spacing" textLength="6.675" font-family="sans-serif">1</text><text x="1201.4591" y="398.2911" fill="#000000" font-size="12" lengthAdjust="spacing" textLength="6.675" font-family="sans-serif">1</text></g><!--link Tuteur to Accompagnement--><g class="link" data-entity-1="ent0004" data-entity-2="ent0006" id="lnk11" data-source-line="48" data-link-type="association"><path d="M1191,265.36 C1191,293.46 1191,371.46 1191,408.7" style="stroke:#475569;stroke-width:1;" fill="none" id="Tuteur-Accompagnement" codeLine="48"/><text x="1192" y="314.3333" fill="#000000" font-size="12" lengthAdjust="spacing" textLength="43.35" font-family="sans-serif">encadre</text><text x="1183.833" y="282.2883" fill="#000000" font-size="12" lengthAdjust="spacing" textLength="6.675" font-family="sans-serif">1</text><text x="1171.7402" y="398.3552" fill="#000000" font-size="12" lengthAdjust="spacing" textLength="17.925" font-family="sans-serif">0..*</text></g><!--link Accompagnement to GMN12--><g class="link" data-entity-1="ent0006" data-entity-2="ent0013" id="lnk14" data-source-line="51" data-link-type="association"><path d="M1242.59,430 C1257.42,430 1269.67,430 1269.67,430 C1269.67,430 1272.32,430 1276.65,430" style="stroke:#475569;stroke-width:1;stroke-dasharray:7,7;" fill="none" id="Accompagnement-GMN12"/></g><!--reverse link Conversation to Message--><g class="link" data-entity-1="ent0016" data-entity-2="ent0017" id="lnk20" data-source-line="88" data-link-type="composition"><path d="M191.3113,674.4691 C210.3413,697.0091 229.4,719.59 253.84,748.54" style="stroke:#475569;stroke-width:1;" fill="none" id="Conversation-backto-Message" codeLine="88"/><polygon points="183.57,665.3,184.3843,672.465,191.3113,674.4691,190.497,667.3041,183.57,665.3" fill="#475569" style="stroke:#475569;stroke-width:1;stroke-linejoin:miter;stroke-miterlimit:10;"/><text x="232.79" y="722.3333" fill="#000000" font-size="12" lengthAdjust="spacing" textLength="42" font-family="sans-serif">contient</text><text x="182.2942" y="682.3265" fill="#000000" font-size="12" lengthAdjust="spacing" textLength="6.675" font-family="sans-serif">1</text><text x="230.2446" y="738.2998" fill="#000000" font-size="12" lengthAdjust="spacing" textLength="17.925" font-family="sans-serif">0..*</text></g><!--link Notification to Message--><g class="link" data-entity-1="ent0018" data-entity-2="ent0017" id="lnk21" data-source-line="89" data-link-type="dependency"><path d="M569.06,684.27 C558.34,690.64 551,695 551,695 C551,695 467.7707,739.4352 399.3107,775.9852" style="stroke:#475569;stroke-width:1;" fill="none" id="Notification-to-Message" codeLine="89"/><polygon points="394.9,778.34,404.7232,777.6299,399.3107,775.9852,400.9555,770.5727,394.9,778.34" fill="#475569" style="stroke:#475569;stroke-width:1;stroke-linejoin:miter;stroke-miterlimit:10;"/><text x="517.74" y="722.3333" fill="#000000" font-size="12" lengthAdjust="spacing" textLength="49.35" font-family="sans-serif">concerne</text><text x="543.1046" y="685.9612" fill="#000000" font-size="12" lengthAdjust="spacing" textLength="17.925" font-family="sans-serif">0..*</text><text x="402.6236" y="771.4057" fill="#000000" font-size="12" lengthAdjust="spacing" textLength="19.95" font-family="sans-serif">0..1</text></g><!--link Notification to TypeNotification--><g class="link" data-entity-1="ent0018" data-entity-2="ent0019" id="lnk22" data-source-line="90" data-link-type="dependency"><path d="M652,689.3 C652,723.93 652,762.28 652,789.57" style="stroke:#475569;stroke-width:1;" fill="none" id="Notification-to-TypeNotification" codeLine="90"/><polygon points="652,794.57,656,785.57,652,789.57,648,785.57,652,794.57" fill="#475569" style="stroke:#475569;stroke-width:1;stroke-linejoin:miter;stroke-miterlimit:10;"/></g><!--reverse link EvenementCalendrier to EvenementPersonnel--><g class="link" data-entity-1="ent0027" data-entity-2="ent0028" id="lnk30" data-source-line="115" data-link-type="extension"><path d="M1821.6623,496.3883 C1836.3823,538.8783 1851.18,581.59 1861.92,612.56" style="stroke:#475569;stroke-width:1;" fill="none" id="EvenementCalendrier-backto-EvenementPersonnel" codeLine="115"/><polygon points="1815.77,479.38,1815.9928,498.3524,1827.3317,494.4242,1815.77,479.38" fill="none" style="stroke:#475569;stroke-width:1;stroke-linejoin:miter;stroke-miterlimit:10;"/></g><!--reverse link EvenementCalendrier to Rencontre--><g class="link" data-entity-1="ent0027" data-entity-2="ent0029" id="lnk31" data-source-line="116" data-link-type="extension"><path d="M1773.523,496.1432 C1756.903,538.6332 1740.11,581.59 1727.99,612.56" style="stroke:#475569;stroke-width:1;" fill="none" id="EvenementCalendrier-backto-Rencontre" codeLine="116"/><polygon points="1780.08,479.38,1767.9353,493.9576,1779.1108,498.3289,1780.08,479.38" fill="none" style="stroke:#475569;stroke-width:1;stroke-linejoin:miter;stroke-miterlimit:10;"/></g><!--reverse link ElementTravail to TacheSuivi--><g class="link" data-entity-1="ent0033" data-entity-2="ent0034" id="lnk37" data-source-line="142" data-link-type="extension"><path d="M1068.5841,871.7803 C1082.6741,903.6203 1096.76,935.44 1110.55,966.6" style="stroke:#475569;stroke-width:1;" fill="none" id="ElementTravail-backto-TacheSuivi" codeLine="142"/><polygon points="1061.3,855.32,1063.0973,874.2083,1074.0709,869.3523,1061.3,855.32" fill="none" style="stroke:#475569;stroke-width:1;stroke-linejoin:miter;stroke-miterlimit:10;"/></g><!--reverse link ElementTravail to ElementPersonnel--><g class="link" data-entity-1="ent0033" data-entity-2="ent0035" id="lnk38" data-source-line="143" data-link-type="extension"><path d="M1014.007,870.0587 C990.717,903.2787 965.22,939.64 943.55,970.54" style="stroke:#475569;stroke-width:1;" fill="none" id="ElementTravail-backto-ElementPersonnel" codeLine="143"/><polygon points="1024.34,855.32,1009.0941,866.6143,1018.9199,873.503,1024.34,855.32" fill="none" style="stroke:#475569;stroke-width:1;stroke-linejoin:miter;stroke-miterlimit:10;"/></g><!--link ElementPersonnel to TypeElementPersonnel--><g class="link" data-entity-1="ent0035" data-entity-2="ent0036" id="lnk39" data-source-line="144" data-link-type="dependency"><path d="M925,1025.39 C925,1040.51 925,1054.6 925,1070.63" style="stroke:#475569;stroke-width:1;" fill="none" id="ElementPersonnel-to-TypeElementPersonnel" codeLine="144"/><polygon points="925,1075.63,929,1066.63,925,1070.63,921,1066.63,925,1075.63" fill="#475569" style="stroke:#475569;stroke-width:1;stroke-linejoin:miter;stroke-miterlimit:10;"/></g><!--link Accompagnement to Conversation--><g class="link" data-entity-1="ent0006" data-entity-2="ent0016" id="lnk43" data-source-line="153" data-link-type="association"><path d="M1139.42,436.4 C949.9,456.25 303,524 303,524 C303,524 241.29,570.39 198.39,602.64" style="stroke:#475569;stroke-width:1;" fill="none" id="Accompagnement-Conversation" codeLine="153"/><text x="495.81" y="512.3333" fill="#000000" font-size="12" lengthAdjust="spacing" textLength="114" font-family="sans-serif">structure les échanges</text><text x="1125.1145" y="433.7946" fill="#000000" font-size="12" lengthAdjust="spacing" textLength="6.675" font-family="sans-serif">1</text><text x="185.8585" y="592.2678" fill="#000000" font-size="12" lengthAdjust="spacing" textLength="19.95" font-family="sans-serif">0..1</text></g><!--link Accompagnement to Rencontre--><g class="link" data-entity-1="ent0006" data-entity-2="ent0029" id="lnk44" data-source-line="154" data-link-type="association"><path d="M1214.02,451.31 C1233.75,468.72 1259,491 1259,491 C1259,491 1630,502 1630,502 C1630,502 1680.62,575.69 1705.94,612.53" style="stroke:#475569;stroke-width:1;" fill="none" id="Accompagnement-Rencontre" codeLine="154"/><text x="1640.36" y="512.3333" fill="#000000" font-size="12" lengthAdjust="spacing" textLength="38.1" font-family="sans-serif">planifie</text><text x="1221.4338" y="468.3243" fill="#000000" font-size="12" lengthAdjust="spacing" textLength="6.675" font-family="sans-serif">1</text><text x="1683.0006" y="602.4808" fill="#000000" font-size="12" lengthAdjust="spacing" textLength="17.925" font-family="sans-serif">0..*</text></g><!--link Accompagnement to TacheSuivi--><g class="link" data-entity-1="ent0006" data-entity-2="ent0034" id="lnk45" data-source-line="155" data-link-type="association"><path d="M1212.29,451.35 C1283.37,519.29 1508,734 1508,734 C1508,734 1508,935 1508,935 C1508,935 1222,967 1222,967 C1222,967 1215.09,969.12 1204.93,972.23" style="stroke:#475569;stroke-width:1;" fill="none" id="Accompagnement-TacheSuivi" codeLine="155"/><text x="1500.12" y="722.3333" fill="#000000" font-size="12" lengthAdjust="spacing" textLength="46.05" font-family="sans-serif">organise</text><text x="1211.5297" y="468.3755" fill="#000000" font-size="12" lengthAdjust="spacing" textLength="6.675" font-family="sans-serif">1</text><text x="1212.6551" y="966.8331" fill="#000000" font-size="12" lengthAdjust="spacing" textLength="17.925" font-family="sans-serif">0..*</text></g><!--link Notification to TacheSuivi--><g class="link" data-entity-1="ent0018" data-entity-2="ent0034" id="lnk46" data-source-line="156" data-link-type="dependency"><path d="M730.97,689.46 C735.94,692.89 739,695 739,695 C739,695 1449,734 1449,734 C1449,734 1449,935 1449,935 C1449,935 1222,967 1222,967 C1222,967 1219.871,967.6565 1209.711,970.7665" style="stroke:#475569;stroke-width:1;" fill="none" id="Notification-to-TacheSuivi" codeLine="156"/><polygon points="1204.93,972.23,1214.7066,973.4206,1209.711,970.7665,1212.3651,965.7709,1204.93,972.23" fill="#475569" style="stroke:#475569;stroke-width:1;stroke-linejoin:miter;stroke-miterlimit:10;"/><text x="1450" y="825.3333" fill="#000000" font-size="12" lengthAdjust="spacing" textLength="49.35" font-family="sans-serif">concerne</text><text x="722.6152" y="706.2838" fill="#000000" font-size="12" lengthAdjust="spacing" textLength="17.925" font-family="sans-serif">0..*</text><text x="1211.3472" y="979.692" fill="#000000" font-size="12" lengthAdjust="spacing" textLength="19.95" font-family="sans-serif">0..1</text></g><!--link COMPTES to COMMUNICATION--><!--link COMPTES to CALENDRIER--><!--link COMMUNICATION to TACHES--><g class="legend" data-source-line="163"><rect x="754.7375" y="1186" width="465.525" height="84" fill="none" style="stroke:#000000;stroke-width:1;" rx="7.5" ry="7.5"/><text x="759.7375" y="1203.8889" fill="#000000" font-size="14" lengthAdjust="spacing" textLength="51.45" font-weight="700" font-family="sans-serif">Relation</text><text x="823.6125" y="1203.8889" fill="#000000" font-size="14" lengthAdjust="spacing" textLength="75.6" font-weight="700" font-family="sans-serif">Signification</text><text x="759.7375" y="1217.8889" fill="#000000" font-size="14" lengthAdjust="spacing" textLength="8.225" font-family="sans-serif">&lt;</text><text x="823.6125" y="1217.8889" fill="#000000" font-size="14" lengthAdjust="spacing" textLength="9.275" font-family="sans-serif">--</text><text x="1036.9375" y="1217.8889" fill="#000000" font-size="14" lengthAdjust="spacing" textLength="178.325" font-family="sans-serif">Généralisation / spécialisation</text><text x="759.7375" y="1231.8889" fill="#000000" font-size="14" lengthAdjust="spacing" textLength="14.7" font-family="sans-serif">*--</text><text x="823.6125" y="1231.8889" fill="#000000" font-size="14" lengthAdjust="spacing" textLength="213.325" font-family="sans-serif">Composition : cycle de vie dépendant</text><text x="759.7375" y="1245.8889" fill="#000000" font-size="14" lengthAdjust="spacing" textLength="3.85" font-family="sans-serif"> </text><text x="759.7375" y="1245.8889" fill="#000000" font-size="14" lengthAdjust="spacing" textLength="3.85" text-decoration="line-through" font-family="sans-serif">/</text><text x="763.5875" y="1245.8889" fill="#000000" font-size="14" lengthAdjust="spacing" textLength="8.225" font-family="sans-serif">></text><text x="823.6125" y="1245.8889" fill="#000000" font-size="14" lengthAdjust="spacing" textLength="110.5125" font-family="sans-serif">Association métier</text><text x="759.7375" y="1259.8889" fill="#000000" font-size="14" lengthAdjust="spacing" textLength="63.875" font-family="sans-serif">Note jaune</text><text x="823.6125" y="1259.8889" fill="#000000" font-size="14" lengthAdjust="spacing" textLength="116.025" font-family="sans-serif">Hypothèse à valider</text><line x1="759.7375" y1="1193" x2="1215.2625" y2="1193" style="stroke:#000000;stroke-width:1;"/><line x1="759.7375" y1="1207" x2="1215.2625" y2="1207" style="stroke:#000000;stroke-width:1;"/><line x1="759.7375" y1="1221" x2="1215.2625" y2="1221" style="stroke:#000000;stroke-width:1;"/><line x1="759.7375" y1="1235" x2="1215.2625" y2="1235" style="stroke:#000000;stroke-width:1;"/><line x1="759.7375" y1="1249" x2="1215.2625" y2="1249" style="stroke:#000000;stroke-width:1;"/><line x1="759.7375" y1="1263" x2="1215.2625" y2="1263" style="stroke:#000000;stroke-width:1;"/><line x1="759.7375" y1="1193" x2="759.7375" y2="1263" style="stroke:#000000;stroke-width:1;"/><line x1="823.6125" y1="1193" x2="823.6125" y2="1263" style="stroke:#000000;stroke-width:1;"/><line x1="1036.9375" y1="1193" x2="1036.9375" y2="1263" style="stroke:#000000;stroke-width:1;"/><line x1="1215.2625" y1="1193" x2="1215.2625" y2="1263" style="stroke:#000000;stroke-width:1;"/></g></g></svg>