<svg xmlns="http://www.w3.org/2000/svg" xmlns:xlink="http://www.w3.org/1999/xlink" version="1.1" style="width:728px;height:649px;background:#FFFFFF;" width="728px" height="649px" viewBox="0 0 728 649" zoomAndPan="magnify" preserveAspectRatio="none" contentStyleType="text/css"><?plantuml 1.2026.7beta3?><defs/><g><g class="title" data-source-line="1"><text x="225.8487" y="20.8889" fill="#000000" font-size="14" lengthAdjust="spacing" textLength="275.0125" font-weight="700" font-family="sans-serif">HomeSkolar — Vue globale des cas d’utilisation</text></g><!--cluster HomeSkolar--><g class="cluster" data-qualified-name="HomeSkolar" id="ent0003" data-source-line="21"><rect x="80.5" y="140.74" width="520.91" height="500" fill="none" style="stroke:#64748B;stroke-width:1;" rx="2.5" ry="2.5"/><text x="302.4112" y="153.6289" fill="#1F2937" font-size="14" lengthAdjust="spacing" textLength="77.0875" font-weight="700" font-family="sans-serif">HomeSkolar</text></g><!--cluster Compte et accompagnement--><g class="cluster" data-qualified-name="HomeSkolar.Compte et accompagnement" id="ent0004" data-source-line="22"><rect x="104.5" y="181.74" width="217.39" height="160" fill="#EAF2FF" style="stroke:#64748B;stroke-width:1;" rx="2.5" ry="2.5"/><text x="127.27" y="194.6289" fill="#1F2937" font-size="14" lengthAdjust="spacing" textLength="171.85" font-weight="700" font-family="sans-serif">Compte et accompagnement</text></g><!--cluster Communication--><g class="cluster" data-qualified-name="HomeSkolar.Communication" id="ent0007" data-source-line="27"><rect x="117.65" y="365.74" width="191.09" height="91" fill="#ECFDF3" style="stroke:#64748B;stroke-width:1;" rx="2.5" ry="2.5"/><text x="164.545" y="378.6289" fill="#1F2937" font-size="14" lengthAdjust="spacing" textLength="97.3" font-weight="700" font-family="sans-serif">Communication</text></g><!--cluster Rencontres--><g class="cluster" data-qualified-name="HomeSkolar.Rencontres" id="ent0009" data-source-line="31"><rect x="349.89" y="181.74" width="227.52" height="164" fill="#FFF7E6" style="stroke:#64748B;stroke-width:1;" rx="2.5" ry="2.5"/><text x="427.8625" y="194.6289" fill="#1F2937" font-size="14" lengthAdjust="spacing" textLength="71.575" font-weight="700" font-family="sans-serif">Rencontres</text></g><!--cluster Tâches--><g class="cluster" data-qualified-name="HomeSkolar.T.ches" id="ent0012" data-source-line="36"><rect x="360.55" y="369.74" width="206.2" height="247" fill="#F5EEFF" style="stroke:#64748B;stroke-width:1;" rx="2.5" ry="2.5"/><text x="440.6812" y="382.6289" fill="#1F2937" font-size="14" lengthAdjust="spacing" textLength="45.9375" font-weight="700" font-family="sans-serif">Tâches</text></g><!--entity UC_Compte--><g class="entity" data-qualified-name="HomeSkolar.Compte et accompagnement.UC_Compte" id="ent0005" data-source-line="23"><ellipse cx="213.1936" cy="309.7367" rx="65.7336" ry="15.5467" fill="#F8FAFC" style="stroke:#475569;stroke-width:0.5;"/><text x="161.1311" y="313.2367" fill="#1F2937" font-size="14" lengthAdjust="spacing" textLength="104.125" font-family="sans-serif">Gérer son compte</text></g><!--entity UC_Affectation--><g class="entity" data-qualified-name="HomeSkolar.Compte et accompagnement.UC_Affectation" id="ent0006" data-source-line="24"><ellipse cx="213.193" cy="236.7352" rx="92.693" ry="21.9952" fill="#F8FAFC" style="stroke:#475569;stroke-width:0.5;"/><text x="147.0868" y="234.3971" fill="#1F2937" font-size="14" lengthAdjust="spacing" textLength="132.2125" font-family="sans-serif">Être associé à un tuteur</text><text x="159.1618" y="248.3971" fill="#1F2937" font-size="14" lengthAdjust="spacing" textLength="108.0625" font-family="sans-serif">automatiquement</text></g><!--entity UC_Communication--><g class="entity" data-qualified-name="HomeSkolar.Communication.UC_Communication" id="ent0008" data-source-line="28"><ellipse cx="213.1854" cy="419.7387" rx="79.5454" ry="21.2387" fill="#F8FAFC" style="stroke:#475569;stroke-width:0.5;"/><text x="154.4292" y="418.549" fill="#1F2937" font-size="14" lengthAdjust="spacing" textLength="117.5125" font-family="sans-serif">Communiquer avec</text><text x="178.9292" y="432.549" fill="#1F2937" font-size="14" lengthAdjust="spacing" textLength="68.5125" font-family="sans-serif">son binôme</text></g><!--entity UC_Calendrier--><g class="entity" data-qualified-name="HomeSkolar.Rencontres.UC_Calendrier" id="ent0010" data-source-line="32"><ellipse cx="463.6473" cy="311.7355" rx="77.8773" ry="17.9755" fill="#F8FAFC" style="stroke:#475569;stroke-width:0.5;"/><text x="397.4536" y="315.2355" fill="#1F2937" font-size="14" lengthAdjust="spacing" textLength="132.3875" font-family="sans-serif">Consulter le calendrier</text></g><!--entity UC_RendezVous--><g class="entity" data-qualified-name="HomeSkolar.Rencontres.UC_RendezVous" id="ent0011" data-source-line="33"><ellipse cx="463.6531" cy="236.7426" rx="97.7631" ry="21.9526" fill="#F8FAFC" style="stroke:#475569;stroke-width:0.5;"/><text x="388.1844" y="235.7805" fill="#1F2937" font-size="14" lengthAdjust="spacing" textLength="150.9375" font-family="sans-serif">Créer, modifier ou annuler</text><text x="417.3656" y="249.7805" fill="#1F2937" font-size="14" lengthAdjust="spacing" textLength="92.575" font-family="sans-serif">un rendez-vous</text></g><!--entity UC_Attribuer--><g class="entity" data-qualified-name="HomeSkolar.T.ches.UC_Attribuer" id="ent0013" data-source-line="37"><ellipse cx="463.6516" cy="423.7437" rx="73.3316" ry="20.8337" fill="#F8FAFC" style="stroke:#475569;stroke-width:0.5;"/><text x="408.4391" y="423.1965" fill="#1F2937" font-size="14" lengthAdjust="spacing" textLength="110.425" font-family="sans-serif">Attribuer une tâche</text><text x="441.8204" y="437.1965" fill="#1F2937" font-size="14" lengthAdjust="spacing" textLength="43.6625" font-family="sans-serif">de suivi</text></g><!--entity UC_ConsulterTaches--><g class="entity" data-qualified-name="HomeSkolar.T.ches.UC_ConsulterTaches" id="ent0014" data-source-line="38"><ellipse cx="463.6512" cy="500.7441" rx="79.8712" ry="21.0741" fill="#F8FAFC" style="stroke:#475569;stroke-width:0.5;"/><text x="404.1075" y="499.8129" fill="#1F2937" font-size="14" lengthAdjust="spacing" textLength="119.0875" font-family="sans-serif">Consulter les tâches</text><text x="432.9387" y="513.8129" fill="#1F2937" font-size="14" lengthAdjust="spacing" textLength="61.425" font-family="sans-serif">attribuées</text></g><!--entity UC_TachesPerso--><g class="entity" data-qualified-name="HomeSkolar.T.ches.UC_TachesPerso" id="ent0015" data-source-line="39"><ellipse cx="463.653" cy="578.7395" rx="87.103" ry="21.8995" fill="#F8FAFC" style="stroke:#475569;stroke-width:0.5;"/><text x="414.303" y="573.9357" fill="#1F2937" font-size="14" lengthAdjust="spacing" textLength="98.7" font-family="sans-serif">Gérer ses tâches</text><text x="401.353" y="587.9357" fill="#1F2937" font-size="14" lengthAdjust="spacing" textLength="124.6" font-family="sans-serif">personnelles privées</text></g><!--entity Eleve--><g class="entity" data-qualified-name="Eleve" id="ent0001" data-source-line="18"><ellipse cx="33" cy="435.74" rx="16" ry="16" fill="#F1F1F1" style="stroke:#181818;stroke-width:0.5;"/><path d="M33,455.74 C37,455.74 40,455.74 44,451.74 C52,451.74 60,459.74 60,467.74 L60,471.74 C60,475.74 56,479.74 52,479.74 L14,479.74 C10,479.74 6,475.74 6,471.74 L6,467.74 C6,459.74 14,451.74 22,451.74 C26,455.74 29,455.74 33,455.74" style="stroke:#181818;stroke-width:0.5;" fill="#F1F1F1"/><text x="15.4562" y="491.1289" fill="#000000" font-size="14" lengthAdjust="spacing" textLength="35.0875" font-family="sans-serif">Élève</text></g><!--entity Tuteur--><g class="entity" data-qualified-name="Tuteur" id="ent0002" data-source-line="19"><ellipse cx="670.06" cy="253.74" rx="16" ry="16" fill="#F1F1F1" style="stroke:#181818;stroke-width:0.5;"/><path d="M670.06,273.74 C674.06,273.74 677.06,273.74 681.06,269.74 C689.06,269.74 697.06,277.74 697.06,285.74 L697.06,289.74 C697.06,293.74 693.06,297.74 689.06,297.74 L651.06,297.74 C647.06,297.74 643.06,293.74 643.06,289.74 L643.06,285.74 C643.06,277.74 651.06,269.74 659.06,269.74 C663.06,273.74 666.06,273.74 670.06,273.74" style="stroke:#181818;stroke-width:0.5;" fill="#F1F1F1"/><text x="621.41" y="309.1289" fill="#000000" font-size="14" lengthAdjust="spacing" textLength="97.3" font-family="sans-serif">Tuteur bénévole</text></g><!--link Eleve to UC_Compte--><g class="link" data-entity-1="ent0001" data-entity-2="ent0005" id="lnk16" data-source-line="43" data-link-type="association"><path d="M48.25,418.83 C54.32,406.25 62.37,392.89 72.5,382.74 C101.01,354.17 143.04,334.29 173.55,322.57" style="stroke:#181818;stroke-width:1;" fill="none" id="Eleve-UC_Compte"/></g><!--link Eleve to UC_Affectation--><g class="link" data-entity-1="ent0001" data-entity-2="ent0006" id="lnk17" data-source-line="44" data-link-type="association"><path d="M37.52,419.02 C42.62,372.48 53.58,297 72.5,276.74 C87.05,261.16 107.22,251.51 127.7,245.57" style="stroke:#181818;stroke-width:1;" fill="none" id="Eleve-UC_Affectation"/></g><!--link Eleve to UC_Communication--><g class="link" data-entity-1="ent0001" data-entity-2="ent0008" id="lnk18" data-source-line="45" data-link-type="association"><path d="M60.68,451.2 C84.08,446.34 119.02,439.09 149.45,432.77" style="stroke:#181818;stroke-width:1;" fill="none" id="Eleve-UC_Communication"/></g><!--link Eleve to UC_Calendrier--><g class="link" data-entity-1="ent0001" data-entity-2="ent0010" id="lnk19" data-source-line="46" data-link-type="association"><path d="M60.71,466.84 C117.65,486.45 252.13,522.3 329.89,456.74 C354.02,436.39 324.26,412.93 341.89,386.74 C360.77,358.69 394.02,339.18 420.86,327.11" style="stroke:#181818;stroke-width:1;" fill="none" id="Eleve-UC_Calendrier"/></g><!--link Eleve to UC_ConsulterTaches--><g class="link" data-entity-1="ent0001" data-entity-2="ent0014" id="lnk20" data-source-line="47" data-link-type="association"><path d="M48.88,494.74 C54.69,504.64 62.44,514.1 72.5,519.74 C182.51,581.44 338.62,543.45 415.77,518.06" style="stroke:#181818;stroke-width:1;" fill="none" id="Eleve-UC_ConsulterTaches"/></g><!--link Eleve to UC_TachesPerso--><g class="link" data-entity-1="ent0001" data-entity-2="ent0015" id="lnk21" data-source-line="48" data-link-type="association"><path d="M37.71,494.71 C42.1,517.74 51.67,545.52 72.5,560.74 C169.67,631.76 319.65,612.95 402.5,594.73" style="stroke:#181818;stroke-width:1;" fill="none" id="Eleve-UC_TachesPerso"/></g><!--link UC_Compte to Tuteur--><g class="link" data-entity-1="ent0005" data-entity-2="ent0002" id="lnk22" data-source-line="50" data-link-type="association"><path d="M276.63,305.23 C296.57,300.57 316.83,291.84 329.89,275.74 C351.51,249.08 316.69,145.05 341.89,121.74 C429.17,41 511.25,54.65 609.41,121.74 C646.96,147.4 660.87,200.48 666.03,236.85" style="stroke:#181818;stroke-width:1;" fill="none" id="UC_Compte-Tuteur"/></g><!--link UC_Communication to Tuteur--><g class="link" data-entity-1="ent0008" data-entity-2="ent0002" id="lnk23" data-source-line="51" data-link-type="association"><path d="M258.23,401.83 C283.68,389.04 313.76,369.21 329.89,341.74 C346.03,314.24 318.41,220.33 341.89,198.74 C429.41,118.26 502.49,146.74 609.41,198.74 C626.16,206.88 639.59,222.25 649.44,237.05" style="stroke:#181818;stroke-width:1;" fill="none" id="UC_Communication-Tuteur"/></g><!--link UC_Calendrier to Tuteur--><g class="link" data-entity-1="ent0010" data-entity-2="ent0002" id="lnk24" data-source-line="52" data-link-type="association"><path d="M525.98,300.64 C556.44,295.13 592.7,288.56 621.09,283.42" style="stroke:#181818;stroke-width:1;" fill="none" id="UC_Calendrier-Tuteur"/></g><!--link UC_RendezVous to Tuteur--><g class="link" data-entity-1="ent0011" data-entity-2="ent0002" id="lnk25" data-source-line="53" data-link-type="association"><path d="M540.18,250.78 C567.25,255.81 597,261.34 621.09,265.82" style="stroke:#181818;stroke-width:1;" fill="none" id="UC_RendezVous-Tuteur"/></g><!--link UC_Attribuer to Tuteur--><g class="link" data-entity-1="ent0013" data-entity-2="ent0002" id="lnk26" data-source-line="54" data-link-type="association"><path d="M506.18,406.48 C536.58,392.68 577.86,371.42 609.41,345.74 C621.15,336.19 632.31,324.08 641.73,312.58" style="stroke:#181818;stroke-width:1;" fill="none" id="UC_Attribuer-Tuteur"/></g><!--link UC_TachesPerso to Tuteur--><g class="link" data-entity-1="ent0015" data-entity-2="ent0002" id="lnk27" data-source-line="55" data-link-type="association"><path d="M547.11,572.32 C569.99,566.7 593.02,556.83 609.41,539.74 C640.34,507.49 658.17,377.78 665.34,312.57" style="stroke:#181818;stroke-width:1;" fill="none" id="UC_TachesPerso-Tuteur"/></g><!--link UC_Compte to UC_Communication--><!--link UC_Compte to UC_Calendrier--><!--link UC_Communication to UC_Attribuer--></g></svg>