<svg xmlns="http://www.w3.org/2000/svg" xmlns:xlink="http://www.w3.org/1999/xlink" version="1.1" style="width:729px;height:516px;background:#FFFFFF;" width="729px" height="516px" viewBox="0 0 729 516" zoomAndPan="magnify" preserveAspectRatio="none" contentStyleType="text/css"><?plantuml 1.2026.7beta3?><defs/><g><g class="title" data-source-line="1"><text x="215.4538" y="20.8889" fill="#000000" font-size="14" lengthAdjust="spacing" textLength="296.7125" font-weight="700" font-family="sans-serif">HomeSkolar — Cas d’utilisation — Communication</text></g><!--cluster HomeSkolar — Communication--><g class="cluster" data-qualified-name="HomeSkolar . Communication" id="ent0003" data-source-line="20"><rect x="114.39" y="208.5" width="460.93" height="248" fill="none" style="stroke:#64748B;stroke-width:1;" rx="2.5" ry="2.5"/><text x="250.6612" y="221.3889" fill="#1F2937" font-size="14" lengthAdjust="spacing" textLength="188.3875" font-weight="700" font-family="sans-serif">HomeSkolar — Communication</text></g><!--entity UC_Message--><g class="entity" data-qualified-name="HomeSkolar . Communication.UC_Message" id="ent0004" data-source-line="21"><ellipse cx="225.1895" cy="342.4999" rx="94.7995" ry="21.3599" fill="#ECFDF3" style="stroke:#2F7D4A;stroke-width:0.5;"/><text x="152.0395" y="341.9072" fill="#1F2937" font-size="14" lengthAdjust="spacing" textLength="146.3" font-family="sans-serif">Échanger des messages</text><text x="189.402" y="355.9072" fill="#1F2937" font-size="14" lengthAdjust="spacing" textLength="71.575" font-family="sans-serif">instantanés</text></g><!--entity UC_Read--><g class="entity" data-qualified-name="HomeSkolar . Communication.UC_Read" id="ent0005" data-source-line="22"><ellipse cx="501.596" cy="415.5044" rx="57.716" ry="22.3044" fill="#ECFDF3" style="stroke:#2F7D4A;stroke-width:0.5;"/><text x="466.1585" y="411.2959" fill="#1F2937" font-size="14" lengthAdjust="spacing" textLength="70.875" font-family="sans-serif">Consulter la</text><text x="461.9148" y="425.2959" fill="#1F2937" font-size="14" lengthAdjust="spacing" textLength="79.3625" font-family="sans-serif">conversation</text></g><!--entity UC_Notify--><g class="entity" data-qualified-name="HomeSkolar . Communication.UC_Notify" id="ent0006" data-source-line="23"><ellipse cx="225.1877" cy="263.5018" rx="71.5577" ry="22.4318" fill="#ECFDF3" style="stroke:#2F7D4A;stroke-width:0.5;"/><text x="175.7939" y="260.5261" fill="#1F2937" font-size="14" lengthAdjust="spacing" textLength="98.7875" font-family="sans-serif">Être informé d’un</text><text x="179.6439" y="274.5261" fill="#1F2937" font-size="14" lengthAdjust="spacing" textLength="91.0875" font-family="sans-serif">message non lu</text></g><!--entity UC_Pin--><g class="entity" data-qualified-name="HomeSkolar . Communication.UC_Pin" id="ent0007" data-source-line="24"><ellipse cx="225.1859" cy="419.501" rx="93.0659" ry="21.081" fill="#ECFDF3" style="stroke:#2F7D4A;stroke-width:0.5;"/><text x="155.4484" y="418.5589" fill="#1F2937" font-size="14" lengthAdjust="spacing" textLength="139.475" font-family="sans-serif">Épingler ou désépingler</text><text x="189.0046" y="432.5589" fill="#1F2937" font-size="14" lengthAdjust="spacing" textLength="72.3625" font-family="sans-serif">un message</text></g><!--entity Eleve--><g class="entity" data-qualified-name="Eleve" id="ent0001" data-source-line="17"><ellipse cx="33" cy="369.5" rx="16" ry="16" fill="#F1F1F1" style="stroke:#181818;stroke-width:0.5;"/><path d="M33,389.5 C37,389.5 40,389.5 44,385.5 C52,385.5 60,393.5 60,401.5 L60,405.5 C60,409.5 56,413.5 52,413.5 L14,413.5 C10,413.5 6,409.5 6,405.5 L6,401.5 C6,393.5 14,385.5 22,385.5 C26,389.5 29,389.5 33,389.5" style="stroke:#181818;stroke-width:0.5;" fill="#F1F1F1"/><text x="15.4562" y="424.8889" fill="#000000" font-size="14" lengthAdjust="spacing" textLength="35.0875" font-family="sans-serif">Élève</text></g><!--entity Tuteur--><g class="entity" data-qualified-name="Tuteur" id="ent0002" data-source-line="18"><ellipse cx="670.97" cy="319.5" rx="16" ry="16" fill="#F1F1F1" style="stroke:#181818;stroke-width:0.5;"/><path d="M670.97,339.5 C674.97,339.5 677.97,339.5 681.97,335.5 C689.97,335.5 697.97,343.5 697.97,351.5 L697.97,355.5 C697.97,359.5 693.97,363.5 689.97,363.5 L651.97,363.5 C647.97,363.5 643.97,359.5 643.97,355.5 L643.97,351.5 C643.97,343.5 651.97,335.5 659.97,335.5 C663.97,339.5 666.97,339.5 670.97,339.5" style="stroke:#181818;stroke-width:0.5;" fill="#F1F1F1"/><text x="622.32" y="374.8889" fill="#000000" font-size="14" lengthAdjust="spacing" textLength="97.3" font-family="sans-serif">Tuteur bénévole</text></g><g class="entity" data-qualified-name="GMN16" id="ent0017" data-source-line="39"><path d="M121.5,41 L121.5,64 L328.8875,64 L328.8875,51 L318.8875,41 L121.5,41" style="stroke:#181818;stroke-width:0.5;" fill="#FEFFDD"/><path d="M318.8875,41 L318.8875,51 L328.8875,51 L318.8875,41" style="stroke:#181818;stroke-width:1;" fill="#FEFFDD"/><text x="127.5" y="56.1111" fill="#000000" font-size="13" lengthAdjust="spacing" textLength="186.3875" font-family="sans-serif">Notification interne à la plateforme.</text></g><g class="entity" data-qualified-name="GMN19" id="ent0020" data-source-line="43"><path d="M136.29,156.5 L136.29,192.5 L314.1025,192.5 L314.1025,166.5 L304.1025,156.5 L136.29,156.5" style="stroke:#181818;stroke-width:0.5;" fill="#FEFFDD"/><path d="M304.1025,156.5 L304.1025,166.5 L314.1025,166.5 L304.1025,156.5" style="stroke:#181818;stroke-width:1;" fill="#FEFFDD"/><text x="142.29" y="171.6111" fill="#000000" font-size="13" lengthAdjust="spacing" textLength="156.8125" font-family="sans-serif">Le message épinglé apparaît</text><text x="142.29" y="184.6111" fill="#000000" font-size="13" lengthAdjust="spacing" textLength="91.0813" font-family="sans-serif">en haut de la liste.</text></g><g class="entity" data-qualified-name="GMN22" id="ent0023" data-source-line="48"><path d="M159.73,99 L159.73,122 L290.6612,122 L290.6612,109 L280.6612,99 L159.73,99" style="stroke:#181818;stroke-width:0.5;" fill="#FEFFDD"/><path d="M280.6612,99 L280.6612,109 L290.6612,109 L280.6612,99" style="stroke:#181818;stroke-width:1;" fill="#FEFFDD"/><text x="165.73" y="114.1111" fill="#000000" font-size="13" lengthAdjust="spacing" textLength="109.9312" font-family="sans-serif">Aucune pièce jointe.</text></g><!--link Eleve to UC_Message--><g class="link" data-entity-1="ent0001" data-entity-2="ent0004" id="lnk8" data-source-line="27" data-link-type="association"><path d="M60.91,382.02 C70.25,379.18 80.8,376.08 90.5,373.5 C111.68,367.86 134.91,362.28 155.97,357.43" style="stroke:#181818;stroke-width:1;" fill="none" id="Eleve-UC_Message"/></g><!--link Eleve to UC_Read--><g class="link" data-entity-1="ent0001" data-entity-2="ent0005" id="lnk9" data-source-line="28" data-link-type="association"><path d="M60.91,425.17 C73.2,438.23 88.92,451.58 106.39,458.5 C228.65,506.91 387.92,459.15 460.91,431.77" style="stroke:#181818;stroke-width:1;" fill="none" id="Eleve-UC_Read"/></g><!--link Eleve to UC_Notify--><g class="link" data-entity-1="ent0001" data-entity-2="ent0006" id="lnk10" data-source-line="29" data-link-type="association"><path d="M58.09,352.92 C70.7,335.81 87.45,316.52 106.39,303.5 C124.11,291.33 145.84,282.58 165.81,276.42" style="stroke:#181818;stroke-width:1;" fill="none" id="Eleve-UC_Notify"/></g><!--link Eleve to UC_Pin--><g class="link" data-entity-1="ent0001" data-entity-2="ent0007" id="lnk11" data-source-line="30" data-link-type="association"><path d="M60.85,394.59 C83.27,398.01 116.4,403.06 146.97,407.73" style="stroke:#181818;stroke-width:1;" fill="none" id="Eleve-UC_Pin"/></g><!--link UC_Message to Tuteur--><g class="link" data-entity-1="ent0004" data-entity-2="ent0002" id="lnk12" data-source-line="32" data-link-type="association"><path d="M320.31,342.08 C412.66,341.66 549.82,341.04 621.83,340.72" style="stroke:#181818;stroke-width:1;" fill="none" id="UC_Message-Tuteur"/></g><!--link UC_Read to Tuteur--><g class="link" data-entity-1="ent0005" data-entity-2="ent0002" id="lnk13" data-source-line="33" data-link-type="association"><path d="M540.16,398.67 C564.35,387.83 596.02,373.64 622.02,361.99" style="stroke:#181818;stroke-width:1;" fill="none" id="UC_Read-Tuteur"/></g><!--link UC_Notify to Tuteur--><g class="link" data-entity-1="ent0006" data-entity-2="ent0002" id="lnk14" data-source-line="34" data-link-type="association"><path d="M294.7,269.23 C368.79,276.31 490.01,290.47 592.32,314.5 C602.01,316.78 612.2,319.75 621.9,322.87" style="stroke:#181818;stroke-width:1;" fill="none" id="UC_Notify-Tuteur"/></g><!--link UC_Pin to UC_Read--><g class="link" data-entity-1="ent0007" data-entity-2="ent0005" id="lnk15" data-source-line="36" data-link-type="dependency"><path d="M318.33,418.16 C359.75,417.55 402.3305,416.9333 438.4905,416.4033" style="stroke:#181818;stroke-width:1;stroke-dasharray:7,7;" fill="none" id="UC_Pin-to-UC_Read"/><polygon points="443.49,416.33,434.4323,412.4623,438.4905,416.4033,434.5496,420.4615,443.49,416.33" fill="#181818" style="stroke:#181818;stroke-width:1;stroke-linejoin:miter;stroke-miterlimit:10;"/><text x="359.89" y="412.9011" fill="#000000" font-size="13" lengthAdjust="spacing" textLength="53.4625" font-family="sans-serif">«extend»</text></g><!--link UC_Notify to GMN16--><g class="link" data-entity-1="ent0006" data-entity-2="ent0017" id="lnk18" data-source-line="39" data-link-type="association"><path d="M164.95,251.11 C133.71,241.07 98.91,223.25 83.45,192 C65.11,154.96 65.11,136.04 83.45,99 C91.6,82.52 106.14,71.61 122.89,64.44" style="stroke:#181818;stroke-width:1;stroke-dasharray:7,7;" fill="none" id="UC_Notify-GMN16"/></g><!--link UC_Pin to GMN19--><g class="link" data-entity-1="ent0007" data-entity-2="ent0020" id="lnk21" data-source-line="43" data-link-type="association"><path d="M143.74,408.94 C118.88,401.06 95.05,387.45 83.45,364 C59.59,315.8 59.59,291.2 83.45,243 C95.39,218.87 119.13,203.17 143.81,192.98" style="stroke:#181818;stroke-width:1;stroke-dasharray:7,7;" fill="none" id="UC_Pin-GMN19"/></g><!--link UC_Message to GMN22--><g class="link" data-entity-1="ent0004" data-entity-2="ent0023" id="lnk24" data-source-line="48" data-link-type="association"><path d="M143.77,331.34 C118.92,323.28 95.08,309.51 83.45,286 C57.82,234.22 57.82,207.78 83.45,156 C97.21,128.2 129.21,116.47 159.33,111.85" style="stroke:#181818;stroke-width:1;stroke-dasharray:7,7;" fill="none" id="UC_Message-GMN22"/></g></g></svg>