<svg xmlns="http://www.w3.org/2000/svg" xmlns:xlink="http://www.w3.org/1999/xlink" version="1.1" style="width:483px;height:642px;background:#FFFFFF;" width="483px" height="642px" viewBox="0 0 483 642" zoomAndPan="magnify" preserveAspectRatio="none" contentStyleType="text/css"><?plantuml 1.2026.7beta3?><defs/><g><g class="title" data-source-line="1"><text x="116.7538" y="20.8889" fill="#000000" font-size="14" lengthAdjust="spacing" textLength="248.4125" font-weight="700" font-family="sans-serif">HomeSkolar — Cas d’utilisation — Compte</text></g><!--cluster HomeSkolar — Compte--><g class="cluster" data-qualified-name="HomeSkolar . Compte" id="ent0003" data-source-line="20"><rect x="104.5" y="164" width="228.12" height="469" fill="none" style="stroke:#64748B;stroke-width:1;" rx="2.5" ry="2.5"/><text x="148.5162" y="176.8889" fill="#1F2937" font-size="14" lengthAdjust="spacing" textLength="140.0875" font-weight="700" font-family="sans-serif">HomeSkolar — Compte</text></g><!--entity UC_Register--><g class="entity" data-qualified-name="HomeSkolar . Compte.UC_Register" id="ent0004" data-source-line="21"><ellipse cx="218.5596" cy="515.9999" rx="64.8596" ry="21.7099" fill="#EAF2FF" style="stroke:#2F5D8C;stroke-width:0.5;"/><text x="172.2721" y="514.0878" fill="#1F2937" font-size="14" lengthAdjust="spacing" textLength="92.575" font-family="sans-serif">Créer librement</text><text x="184.3471" y="528.0878" fill="#1F2937" font-size="14" lengthAdjust="spacing" textLength="68.425" font-family="sans-serif">son compte</text></g><!--entity UC_Login--><g class="entity" data-qualified-name="HomeSkolar . Compte.UC_Login" id="ent0005" data-source-line="22"><ellipse cx="218.5566" cy="446.0033" rx="55.6166" ry="13.5233" fill="#EAF2FF" style="stroke:#2F5D8C;stroke-width:0.5;"/><text x="179.2691" y="449.5033" fill="#1F2937" font-size="14" lengthAdjust="spacing" textLength="78.575" font-family="sans-serif">Se connecter</text></g><!--entity UC_Password--><g class="entity" data-qualified-name="HomeSkolar . Compte.UC_Password" id="ent0006" data-source-line="23"><ellipse cx="218.5562" cy="376.0027" rx="56.6562" ry="21.4227" fill="#EAF2FF" style="stroke:#2F5D8C;stroke-width:0.5;"/><text x="177.7812" y="374.5279" fill="#1F2937" font-size="14" lengthAdjust="spacing" textLength="81.55" font-family="sans-serif">Gérer son mot</text><text x="192.0874" y="388.5279" fill="#1F2937" font-size="14" lengthAdjust="spacing" textLength="52.9375" font-family="sans-serif">de passe</text></g><!--entity UC_Reset--><g class="entity" data-qualified-name="HomeSkolar . Compte.UC_Reset" id="ent0007" data-source-line="24"><ellipse cx="218.5624" cy="296.9951" rx="85.8724" ry="22.4851" fill="#EAF2FF" style="stroke:#2F5D8C;stroke-width:0.5;"/><text x="162.9562" y="293.0475" fill="#1F2937" font-size="14" lengthAdjust="spacing" textLength="111.2125" font-family="sans-serif">Récupérer son mot</text><text x="159.0187" y="307.0475" fill="#1F2937" font-size="14" lengthAdjust="spacing" textLength="119.0875" font-family="sans-serif">de passe par courriel</text></g><!--entity UC_Profile--><g class="entity" data-qualified-name="HomeSkolar . Compte.UC_Profile" id="ent0008" data-source-line="25"><ellipse cx="218.5579" cy="595.0016" rx="98.0579" ry="22.0116" fill="#EAF2FF" style="stroke:#2F5D8C;stroke-width:0.5;"/><text x="162.9517" y="590.0822" fill="#1F2937" font-size="14" lengthAdjust="spacing" textLength="111.2125" font-family="sans-serif">Gérer ses données</text><text x="147.2892" y="604.0822" fill="#1F2937" font-size="14" lengthAdjust="spacing" textLength="142.5375" font-family="sans-serif">personnelles minimales</text></g><!--entity UC_Delete--><g class="entity" data-qualified-name="HomeSkolar . Compte.UC_Delete" id="ent0009" data-source-line="26"><ellipse cx="218.5643" cy="218.0009" rx="90.5943" ry="21.4409" fill="#EAF2FF" style="stroke:#2F5D8C;stroke-width:0.5;"/><text x="152.0643" y="216.4981" fill="#1F2937" font-size="14" lengthAdjust="spacing" textLength="133" font-family="sans-serif">Supprimer son compte</text><text x="174.9893" y="230.4981" fill="#1F2937" font-size="14" lengthAdjust="spacing" textLength="87.15" font-family="sans-serif">et ses données</text></g><!--entity Eleve--><g class="entity" data-qualified-name="Eleve" id="ent0001" data-source-line="17"><ellipse cx="33" cy="390" rx="16" ry="16" fill="#F1F1F1" style="stroke:#181818;stroke-width:0.5;"/><path d="M33,410 C37,410 40,410 44,406 C52,406 60,414 60,422 L60,426 C60,430 56,434 52,434 L14,434 C10,434 6,430 6,426 L6,422 C6,414 14,406 22,406 C26,410 29,410 33,410" style="stroke:#181818;stroke-width:0.5;" fill="#F1F1F1"/><text x="15.4562" y="445.3889" fill="#000000" font-size="14" lengthAdjust="spacing" textLength="35.0875" font-family="sans-serif">Élève</text></g><!--entity Tuteur--><g class="entity" data-qualified-name="Tuteur" id="ent0002" data-source-line="18"><ellipse cx="425.27" cy="390" rx="16" ry="16" fill="#F1F1F1" style="stroke:#181818;stroke-width:0.5;"/><path d="M425.27,410 C429.27,410 432.27,410 436.27,406 C444.27,406 452.27,414 452.27,422 L452.27,426 C452.27,430 448.27,434 444.27,434 L406.27,434 C402.27,434 398.27,430 398.27,426 L398.27,422 C398.27,414 406.27,406 414.27,406 C418.27,410 421.27,410 425.27,410" style="stroke:#181818;stroke-width:0.5;" fill="#F1F1F1"/><text x="376.62" y="445.3889" fill="#000000" font-size="14" lengthAdjust="spacing" textLength="97.3" font-family="sans-serif">Tuteur bénévole</text></g><g class="entity" data-qualified-name="GMN22" id="ent0023" data-source-line="44"><path d="M136.52,112 L136.52,148 L300.6013,148 L300.6013,122 L290.6013,112 L136.52,112" style="stroke:#181818;stroke-width:0.5;" fill="#FEFFDD"/><path d="M290.6013,112 L290.6013,122 L300.6013,122 L290.6013,112" style="stroke:#181818;stroke-width:1;" fill="#FEFFDD"/><text x="142.52" y="127.1111" fill="#000000" font-size="13" lengthAdjust="spacing" textLength="143.0813" font-family="sans-serif">Nom d’utilisateur, courriel,</text><text x="142.52" y="140.1111" fill="#000000" font-size="13" lengthAdjust="spacing" textLength="83.6875" font-family="sans-serif">nom et prénom.</text></g><g class="entity" data-qualified-name="GMN25" id="ent0026" data-source-line="49"><path d="M135.42,41 L135.42,77 L301.695,77 L301.695,51 L291.695,41 L135.42,41" style="stroke:#181818;stroke-width:0.5;" fill="#FEFFDD"/><path d="M291.695,41 L291.695,51 L301.695,51 L291.695,41" style="stroke:#181818;stroke-width:1;" fill="#FEFFDD"/><text x="141.42" y="56.1111" fill="#000000" font-size="13" lengthAdjust="spacing" textLength="145.275" font-family="sans-serif">Inscription sans validation.</text><text x="141.42" y="69.1111" fill="#000000" font-size="13" lengthAdjust="spacing" textLength="122.7688" font-family="sans-serif">Aucun administrateur.</text></g><!--link Eleve to UC_Register--><g class="link" data-entity-1="ent0001" data-entity-2="ent0004" id="lnk10" data-source-line="29" data-link-type="association"><path d="M60.77,445.63 C70.94,456.92 83.28,468.67 96.5,477 C116.49,489.59 140.92,498.47 162.58,504.54" style="stroke:#181818;stroke-width:1;" fill="none" id="Eleve-UC_Register"/></g><!--link Eleve to UC_Login--><g class="link" data-entity-1="ent0001" data-entity-2="ent0005" id="lnk11" data-source-line="30" data-link-type="association"><path d="M60.69,416.09 C90.32,421.74 138.6,430.94 173.78,437.65" style="stroke:#181818;stroke-width:1;" fill="none" id="Eleve-UC_Login"/></g><!--link Eleve to UC_Password--><g class="link" data-entity-1="ent0001" data-entity-2="ent0006" id="lnk12" data-source-line="31" data-link-type="association"><path d="M60.69,405.91 C88.53,400.6 132.84,392.15 167.27,385.59" style="stroke:#181818;stroke-width:1;" fill="none" id="Eleve-UC_Password"/></g><!--link Eleve to UC_Reset--><g class="link" data-entity-1="ent0001" data-entity-2="ent0007" id="lnk13" data-source-line="32" data-link-type="association"><path d="M59.21,373.31 C69.48,360.3 82.29,346.6 96.5,337 C113.1,325.78 133.09,317.5 152,311.47" style="stroke:#181818;stroke-width:1;" fill="none" id="Eleve-UC_Reset"/></g><!--link Eleve to UC_Profile--><g class="link" data-entity-1="ent0001" data-entity-2="ent0008" id="lnk14" data-source-line="33" data-link-type="association"><path d="M41.34,448.84 C49.51,481.23 65.81,526.97 96.5,555 C109.33,566.72 125.67,575.01 142.17,580.88" style="stroke:#181818;stroke-width:1;" fill="none" id="Eleve-UC_Profile"/></g><!--link Eleve to UC_Delete--><g class="link" data-entity-1="ent0001" data-entity-2="ent0009" id="lnk15" data-source-line="34" data-link-type="association"><path d="M39.99,373.22 C47.42,338.44 63.41,287.73 96.5,257 C109.77,244.68 126.96,236.25 144.19,230.48" style="stroke:#181818;stroke-width:1;" fill="none" id="Eleve-UC_Delete"/></g><!--link UC_Register to Tuteur--><g class="link" data-entity-1="ent0004" data-entity-2="ent0002" id="lnk16" data-source-line="36" data-link-type="association"><path d="M272.16,503.48 C294.05,497.15 319.28,488.38 340.62,477 C355.14,469.25 369.68,458.92 382.46,448.73" style="stroke:#181818;stroke-width:1;" fill="none" id="UC_Register-Tuteur"/></g><!--link UC_Login to Tuteur--><g class="link" data-entity-1="ent0005" data-entity-2="ent0002" id="lnk17" data-source-line="37" data-link-type="association"><path d="M264.99,438.23 C298.09,432.57 342.83,424.92 376.47,419.17" style="stroke:#181818;stroke-width:1;" fill="none" id="UC_Login-Tuteur"/></g><!--link UC_Password to Tuteur--><g class="link" data-entity-1="ent0006" data-entity-2="ent0002" id="lnk18" data-source-line="38" data-link-type="association"><path d="M270.69,384.74 C303.02,390.27 344.53,397.37 376.25,402.79" style="stroke:#181818;stroke-width:1;" fill="none" id="UC_Password-Tuteur"/></g><!--link UC_Reset to Tuteur--><g class="link" data-entity-1="ent0007" data-entity-2="ent0002" id="lnk19" data-source-line="39" data-link-type="association"><path d="M282.28,312.42 C301.69,318.57 322.67,326.69 340.62,337 C357.59,346.76 374.2,360.34 388.08,373.2" style="stroke:#181818;stroke-width:1;" fill="none" id="UC_Reset-Tuteur"/></g><!--link UC_Profile to Tuteur--><g class="link" data-entity-1="ent0008" data-entity-2="ent0002" id="lnk20" data-source-line="40" data-link-type="association"><path d="M292.73,580.21 C309.68,574.35 326.78,566.23 340.62,555 C374.85,527.21 397.98,481.43 411.09,448.95" style="stroke:#181818;stroke-width:1;" fill="none" id="UC_Profile-Tuteur"/></g><!--link UC_Delete to Tuteur--><g class="link" data-entity-1="ent0009" data-entity-2="ent0002" id="lnk21" data-source-line="41" data-link-type="association"><path d="M291.05,231.23 C308.61,236.99 326.42,245.23 340.62,257 C377.27,287.4 400.37,338.18 412.79,373.07" style="stroke:#181818;stroke-width:1;" fill="none" id="UC_Delete-Tuteur"/></g><!--link UC_Profile to GMN22--><g class="link" data-entity-1="ent0008" data-entity-2="ent0023" id="lnk24" data-source-line="44" data-link-type="association"><path d="M135.07,583.19 C110.93,574.93 88.42,560.99 78.5,537.5 C63.84,502.8 63.84,233.2 78.5,198.5 C88.82,174.06 111.77,158.3 136.16,148.15" style="stroke:#181818;stroke-width:1;stroke-dasharray:7,7;" fill="none" id="UC_Profile-GMN22"/></g><!--link UC_Register to GMN25--><g class="link" data-entity-1="ent0004" data-entity-2="ent0026" id="lnk27" data-source-line="49" data-link-type="association"><path d="M155.71,510.39 C124.68,503.76 91.2,489.57 78.5,459.5 C63.45,423.88 63.45,147.12 78.5,111.5 C88.3,88.3 110.79,75.14 134.93,67.75" style="stroke:#181818;stroke-width:1;stroke-dasharray:7,7;" fill="none" id="UC_Register-GMN25"/></g></g></svg>