<svg xmlns="http://www.w3.org/2000/svg" xmlns:xlink="http://www.w3.org/1999/xlink" version="1.1" style="width:506px;height:485px;background:#FFFFFF;" width="506px" height="485px" viewBox="0 0 506 485" zoomAndPan="magnify" preserveAspectRatio="none" contentStyleType="text/css"><?plantuml 1.2026.7beta3?><defs/><g><g class="title" data-source-line="1"><text x="80.1663" y="20.8889" fill="#000000" font-size="14" lengthAdjust="spacing" textLength="344.1375" font-weight="700" font-family="sans-serif">HomeSkolar — Cas d’utilisation — Rencontres et calendrier</text></g><!--cluster HomeSkolar — Rencontres--><g class="cluster" data-qualified-name="HomeSkolar . Rencontres" id="ent0003" data-source-line="20"><rect x="104.5" y="163.5" width="250.67" height="313" fill="none" style="stroke:#64748B;stroke-width:1;" rx="2.5" ry="2.5"/><text x="148.5038" y="176.3889" fill="#1F2937" font-size="14" lengthAdjust="spacing" textLength="162.6625" font-weight="700" font-family="sans-serif">HomeSkolar — Rencontres</text></g><!--entity UC_Create--><g class="entity" data-qualified-name="HomeSkolar . Rencontres.UC_Create" id="ent0004" data-source-line="21"><ellipse cx="229.8288" cy="442.5018" rx="75.7588" ry="17.5518" fill="#FFF7E6" style="stroke:#A86612;stroke-width:0.5;"/><text x="166.0413" y="446.0018" fill="#1F2937" font-size="14" lengthAdjust="spacing" textLength="127.575" font-family="sans-serif">Créer un rendez-vous</text></g><!--entity UC_Update--><g class="entity" data-qualified-name="HomeSkolar . Rencontres.UC_Update" id="ent0005" data-source-line="22"><ellipse cx="229.8307" cy="298.5041" rx="82.3207" ry="18.8641" fill="#FFF7E6" style="stroke:#A86612;stroke-width:0.5;"/><text x="158.6494" y="302.0041" fill="#1F2937" font-size="14" lengthAdjust="spacing" textLength="142.3625" font-family="sans-serif">Modifier un rendez-vous</text></g><!--entity UC_Cancel--><g class="entity" data-qualified-name="HomeSkolar . Rencontres.UC_Cancel" id="ent0006" data-source-line="23"><ellipse cx="229.8339" cy="371.5008" rx="81.6539" ry="18.7308" fill="#FFF7E6" style="stroke:#A86612;stroke-width:0.5;"/><text x="159.3964" y="375.0008" fill="#1F2937" font-size="14" lengthAdjust="spacing" textLength="140.875" font-family="sans-serif">Annuler un rendez-vous</text></g><!--entity UC_View--><g class="entity" data-qualified-name="HomeSkolar . Rencontres.UC_View" id="ent0007" data-source-line="24"><ellipse cx="229.8348" cy="220.497" rx="109.3348" ry="24.267" fill="#FFF7E6" style="stroke:#A86612;stroke-width:0.5;"/><text x="152.3973" y="216.4223" fill="#1F2937" font-size="14" lengthAdjust="spacing" textLength="154.875" font-family="sans-serif">Consulter les rendez-vous</text><text x="147.366" y="230.4223" fill="#1F2937" font-size="14" lengthAdjust="spacing" textLength="164.9375" font-family="sans-serif">et événements au calendrier</text></g><!--entity Eleve--><g class="entity" data-qualified-name="Eleve" id="ent0001" data-source-line="17"><ellipse cx="33" cy="199.5" rx="16" ry="16" fill="#F1F1F1" style="stroke:#181818;stroke-width:0.5;"/><path d="M33,219.5 C37,219.5 40,219.5 44,215.5 C52,215.5 60,223.5 60,231.5 L60,235.5 C60,239.5 56,243.5 52,243.5 L14,243.5 C10,243.5 6,239.5 6,235.5 L6,231.5 C6,223.5 14,215.5 22,215.5 C26,219.5 29,219.5 33,219.5" style="stroke:#181818;stroke-width:0.5;" fill="#F1F1F1"/><text x="15.4562" y="254.8889" fill="#000000" font-size="14" lengthAdjust="spacing" textLength="35.0875" font-family="sans-serif">Élève</text></g><!--entity Tuteur--><g class="entity" data-qualified-name="Tuteur" id="ent0002" data-source-line="18"><ellipse cx="447.82" cy="314.5" rx="16" ry="16" fill="#F1F1F1" style="stroke:#181818;stroke-width:0.5;"/><path d="M447.82,334.5 C451.82,334.5 454.82,334.5 458.82,330.5 C466.82,330.5 474.82,338.5 474.82,346.5 L474.82,350.5 C474.82,354.5 470.82,358.5 466.82,358.5 L428.82,358.5 C424.82,358.5 420.82,354.5 420.82,350.5 L420.82,346.5 C420.82,338.5 428.82,330.5 436.82,330.5 C440.82,334.5 443.82,334.5 447.82,334.5" style="stroke:#181818;stroke-width:0.5;" fill="#F1F1F1"/><text x="399.17" y="369.8889" fill="#000000" font-size="14" lengthAdjust="spacing" textLength="97.3" font-family="sans-serif">Tuteur bénévole</text></g><g class="entity" data-qualified-name="GMN13" id="ent0014" data-source-line="34"><path d="M134.39,125 L134.39,148 L325.2838,148 L325.2838,135 L315.2838,125 L134.39,125" style="stroke:#181818;stroke-width:0.5;" fill="#FEFFDD"/><path d="M315.2838,125 L315.2838,135 L325.2838,135 L315.2838,125" style="stroke:#181818;stroke-width:1;" fill="#FEFFDD"/><text x="140.39" y="140.1111" fill="#000000" font-size="13" lengthAdjust="spacing" textLength="169.8938" font-family="sans-serif">Aucune acceptation par l’élève.</text></g><g class="entity" data-qualified-name="GMN16" id="ent0017" data-source-line="38"><path d="M120.7,41 L120.7,90 L338.975,90 L338.975,51 L328.975,41 L120.7,41" style="stroke:#181818;stroke-width:0.5;" fill="#FEFFDD"/><path d="M328.975,41 L328.975,51 L338.975,51 L328.975,41" style="stroke:#181818;stroke-width:1;" fill="#FEFFDD"/><text x="126.7" y="56.1111" fill="#000000" font-size="13" lengthAdjust="spacing" textLength="142.2688" font-family="sans-serif">Pas de récurrence, rappel,</text><text x="126.7" y="69.1111" fill="#000000" font-size="13" lengthAdjust="spacing" textLength="135.1188" font-family="sans-serif">fuseau horaire utilisateur</text><text x="126.7" y="82.1111" fill="#000000" font-size="13" lengthAdjust="spacing" textLength="197.275" font-family="sans-serif">ni visioconférence dans le périmètre.</text></g><!--link UC_Create to Tuteur--><g class="link" data-entity-1="ent0004" data-entity-2="ent0002" id="lnk8" data-source-line="27" data-link-type="association"><path d="M292.26,432.31 C315.36,426.95 341.3,419.01 363.17,407.5 C380.12,398.57 396.6,385.63 410.38,373.18" style="stroke:#181818;stroke-width:1;" fill="none" id="UC_Create-Tuteur"/></g><!--link UC_Update to Tuteur--><g class="link" data-entity-1="ent0005" data-entity-2="ent0002" id="lnk9" data-source-line="28" data-link-type="association"><path d="M296.81,309.8 C329.69,315.43 368.72,322.12 398.72,327.26" style="stroke:#181818;stroke-width:1;" fill="none" id="UC_Update-Tuteur"/></g><!--link UC_Cancel to Tuteur--><g class="link" data-entity-1="ent0006" data-entity-2="ent0002" id="lnk10" data-source-line="29" data-link-type="association"><path d="M296.81,360.5 C329.69,355.02 368.72,348.52 398.72,343.52" style="stroke:#181818;stroke-width:1;" fill="none" id="UC_Cancel-Tuteur"/></g><!--link UC_View to Tuteur--><g class="link" data-entity-1="ent0007" data-entity-2="ent0002" id="lnk11" data-source-line="30" data-link-type="association"><path d="M305.53,238.35 C324.97,244.54 345.42,252.51 363.17,262.5 C379.97,271.95 396.41,285.16 410.2,297.74" style="stroke:#181818;stroke-width:1;" fill="none" id="UC_View-Tuteur"/></g><!--link Eleve to UC_View--><g class="link" data-entity-1="ent0001" data-entity-2="ent0007" id="lnk12" data-source-line="31" data-link-type="association"><path d="M60.68,220.5 C76.63,220.5 98.06,220.5 120.27,220.5" style="stroke:#181818;stroke-width:1;" fill="none" id="Eleve-UC_View"/></g><!--link UC_Create to GMN13--><g class="link" data-entity-1="ent0004" data-entity-2="ent0014" id="lnk15" data-source-line="34" data-link-type="association"><path d="M155.23,439.31 C123.58,433.4 91.11,419.84 78.5,390 C61.9,350.7 61.9,237.3 78.5,198 C89.37,172.27 114.28,157.23 140.82,148.47" style="stroke:#181818;stroke-width:1;stroke-dasharray:7,7;" fill="none" id="UC_Create-GMN13"/></g><!--link UC_Cancel to GMN16--><g class="link" data-entity-1="ent0006" data-entity-2="ent0017" id="lnk18" data-source-line="38" data-link-type="association"><path d="M150.79,366.33 C120.62,359.59 90.56,345.55 78.5,317 C61.9,277.7 61.9,164.3 78.5,125 C86.47,106.15 102.06,93.2 120.32,84.33" style="stroke:#181818;stroke-width:1;stroke-dasharray:7,7;" fill="none" id="UC_Cancel-GMN16"/></g></g></svg>