<svg xmlns="http://www.w3.org/2000/svg" xmlns:xlink="http://www.w3.org/1999/xlink" version="1.1" style="width:1636px;height:1217px;background:#FFFFFF;" width="1636px" height="1217px" viewBox="0 0 1636 1217" zoomAndPan="magnify" preserveAspectRatio="none" contentStyleType="text/css"><?plantuml 1.2026.7beta3?><defs/><g><g class="title" data-source-line="1"><text x="633.0363" y="20.8889" fill="#000000" font-size="14" lengthAdjust="spacing" textLength="368.2" font-weight="700" font-family="sans-serif">HomeSkolar — Diagramme de classes métier — version validée</text></g><!--cluster Comptes et accompagnement--><g class="cluster" data-qualified-name="Comptes et accompagnement" id="ent0001" data-source-line="16"><rect x="288" y="254" width="290" height="600" fill="#EAF2FF" style="stroke:#000000;stroke-width:1.5;" rx="2.5" ry="2.5"/><text x="343.575" y="266.8889" fill="#000000" font-size="14" lengthAdjust="spacing" textLength="178.85" font-weight="700" font-family="sans-serif">Comptes et accompagnement</text></g><!--cluster Communication--><g class="cluster" data-qualified-name="Communication" id="ent0010" data-source-line="44"><rect x="849" y="536" width="326" height="360" fill="#ECFDF3" style="stroke:#000000;stroke-width:1.5;" rx="2.5" ry="2.5"/><text x="963.35" y="548.8889" fill="#000000" font-size="14" lengthAdjust="spacing" textLength="97.3" font-weight="700" font-family="sans-serif">Communication</text></g><!--cluster Rencontres et calendrier--><g class="cluster" data-qualified-name="Rencontres et calendrier" id="ent0015" data-source-line="65"><rect x="7" y="943" width="419" height="181" fill="#FFF7E6" style="stroke:#000000;stroke-width:1.5;" rx="2.5" ry="2.5"/><text x="144.1375" y="955.8889" fill="#000000" font-size="14" lengthAdjust="spacing" textLength="144.725" font-weight="700" font-family="sans-serif">Rencontres et calendrier</text></g><!--cluster Tâches et notifications--><g class="cluster" data-qualified-name="T.ches et notifications" id="ent0021" data-source-line="87"><rect x="1072" y="42" width="405" height="414" fill="#F5EEFF" style="stroke:#000000;stroke-width:1.5;" rx="2.5" ry="2.5"/><text x="1208.7438" y="54.8889" fill="#000000" font-size="14" lengthAdjust="spacing" textLength="131.5125" font-weight="700" font-family="sans-serif">Tâches et notifications</text></g><!--class Utilisateur--><g class="entity" data-qualified-name="Comptes et accompagnement.Utilisateur" id="ent0002" data-source-line="17"><rect x="304.19" y="287" width="257.6125" height="188" fill="#FFFFFF" style="stroke:#4B5563;stroke-width:0.5;" rx="2.5" ry="2.5"/><ellipse cx="397.5963" cy="303" rx="11" ry="11" fill="#A9DCDF" style="stroke:#181818;stroke-width:1;"/><text x="392.5963" y="308" fill="#000000" font-size="14" lengthAdjust="spacing" textLength="0" font-family="monospace">A</text><text x="418.0963" y="306.8889" fill="#111827" font-size="14" lengthAdjust="spacing" textLength="62.3" font-style="italic" font-family="sans-serif">Utilisateur</text><line x1="305.19" y1="319" x2="560.8025" y2="319" style="stroke:#4B5563;stroke-width:0.5;"/><text x="310.19" y="333.8889" fill="#000000" font-size="14" lengthAdjust="spacing" textLength="102.725" font-family="sans-serif">-identifiant : UUID</text><text x="310.19" y="347.8889" fill="#000000" font-size="14" lengthAdjust="spacing" textLength="140" font-family="sans-serif">-nom_utilisateur : String</text><text x="310.19" y="361.8889" fill="#000000" font-size="14" lengthAdjust="spacing" textLength="148.575" font-family="sans-serif">-adresse_courriel : String</text><text x="310.19" y="375.8889" fill="#000000" font-size="14" lengthAdjust="spacing" textLength="72.275" font-family="sans-serif">-nom : String</text><text x="310.19" y="389.8889" fill="#000000" font-size="14" lengthAdjust="spacing" textLength="92.4875" font-family="sans-serif">-prenom : String</text><text x="310.19" y="403.8889" fill="#000000" font-size="14" lengthAdjust="spacing" textLength="182.7875" font-family="sans-serif">-mot_de_passe_hache : String</text><line x1="305.19" y1="411" x2="560.8025" y2="411" style="stroke:#4B5563;stroke-width:0.5;"/><text x="310.19" y="425.8889" fill="#000000" font-size="14" lengthAdjust="spacing" textLength="245.6125" font-family="sans-serif">+modifier_donnees_personnelles() : void</text><text x="310.19" y="439.8889" fill="#000000" font-size="14" lengthAdjust="spacing" textLength="196.4375" font-family="sans-serif">+modifier_mot_de_passe() : void</text><text x="310.19" y="453.8889" fill="#000000" font-size="14" lengthAdjust="spacing" textLength="202.825" font-family="sans-serif">+demander_reinitialisation() : void</text><text x="310.19" y="467.8889" fill="#000000" font-size="14" lengthAdjust="spacing" textLength="162.925" font-family="sans-serif">+supprimer_compte() : void</text></g><!--class Eleve--><g class="entity" data-qualified-name="Comptes et accompagnement.Eleve" id="ent0003" data-source-line="30"><rect x="429.46" y="583" width="67.0875" height="48" fill="#FFFFFF" style="stroke:#4B5563;stroke-width:0.5;" rx="2.5" ry="2.5"/><ellipse cx="444.46" cy="599" rx="11" ry="11" fill="#ADD1B2" style="stroke:#181818;stroke-width:1;"/><text x="439.46" y="604" fill="#000000" font-size="14" lengthAdjust="spacing" textLength="0" font-family="monospace">C</text><text x="458.46" y="602.8889" fill="#111827" font-size="14" lengthAdjust="spacing" textLength="35.0875" font-family="sans-serif">Eleve</text><line x1="430.46" y1="615" x2="495.5475" y2="615" style="stroke:#4B5563;stroke-width:0.5;"/><line x1="430.46" y1="623" x2="495.5475" y2="623" style="stroke:#4B5563;stroke-width:0.5;"/></g><!--class Tuteur--><g class="entity" data-qualified-name="Comptes et accompagnement.Tuteur" id="ent0004" data-source-line="31"><rect x="321.79" y="583" width="72.425" height="48" fill="#FFFFFF" style="stroke:#4B5563;stroke-width:0.5;" rx="2.5" ry="2.5"/><ellipse cx="336.79" cy="599" rx="11" ry="11" fill="#ADD1B2" style="stroke:#181818;stroke-width:1;"/><text x="331.79" y="604" fill="#000000" font-size="14" lengthAdjust="spacing" textLength="0" font-family="monospace">C</text><text x="350.79" y="602.8889" fill="#111827" font-size="14" lengthAdjust="spacing" textLength="40.425" font-family="sans-serif">Tuteur</text><line x1="322.79" y1="615" x2="393.215" y2="615" style="stroke:#4B5563;stroke-width:0.5;"/><line x1="322.79" y1="623" x2="393.215" y2="623" style="stroke:#4B5563;stroke-width:0.5;"/></g><!--class Accompagnement--><g class="entity" data-qualified-name="Comptes et accompagnement.Accompagnement" id="ent0005" data-source-line="33"><rect x="305.81" y="762" width="256.3875" height="76" fill="#FFFFFF" style="stroke:#4B5563;stroke-width:0.5;" rx="2.5" ry="2.5"/><ellipse cx="373.36" cy="778" rx="11" ry="11" fill="#ADD1B2" style="stroke:#181818;stroke-width:1;"/><text x="368.36" y="783" fill="#000000" font-size="14" lengthAdjust="spacing" textLength="0" font-family="monospace">C</text><text x="393.86" y="781.8889" fill="#111827" font-size="14" lengthAdjust="spacing" textLength="112.7875" font-family="sans-serif">Accompagnement</text><line x1="306.81" y1="794" x2="561.1975" y2="794" style="stroke:#4B5563;stroke-width:0.5;"/><text x="311.81" y="808.8889" fill="#000000" font-size="14" lengthAdjust="spacing" textLength="102.725" font-family="sans-serif">-identifiant : UUID</text><line x1="306.81" y1="816" x2="561.1975" y2="816" style="stroke:#4B5563;stroke-width:0.5;"/><text x="311.81" y="830.8889" fill="#000000" font-size="14" lengthAdjust="spacing" textLength="244.3875" font-family="sans-serif">+affecter_tuteur_aleatoirement() : Tuteur</text></g><!--class Conversation--><g class="entity" data-qualified-name="Communication.Conversation" id="ent0011" data-source-line="45"><rect x="864.64" y="569" width="294.7125" height="76" fill="#FFFFFF" style="stroke:#4B5563;stroke-width:0.5;" rx="2.5" ry="2.5"/><ellipse cx="966.49" cy="585" rx="11" ry="11" fill="#ADD1B2" style="stroke:#181818;stroke-width:1;"/><text x="961.49" y="590" fill="#000000" font-size="14" lengthAdjust="spacing" textLength="0" font-family="monospace">C</text><text x="986.99" y="588.8889" fill="#111827" font-size="14" lengthAdjust="spacing" textLength="82.5125" font-family="sans-serif">Conversation</text><line x1="865.64" y1="601" x2="1158.3525" y2="601" style="stroke:#4B5563;stroke-width:0.5;"/><text x="870.64" y="615.8889" fill="#000000" font-size="14" lengthAdjust="spacing" textLength="102.725" font-family="sans-serif">-identifiant : UUID</text><line x1="865.64" y1="623" x2="1158.3525" y2="623" style="stroke:#4B5563;stroke-width:0.5;"/><text x="870.64" y="637.8889" fill="#000000" font-size="14" lengthAdjust="spacing" textLength="282.7125" font-family="sans-serif">+envoyer_message(contenu : String) : Message</text></g><!--class Message--><g class="entity" data-qualified-name="Communication.Message" id="ent0012" data-source-line="50"><rect x="946.55" y="720" width="212.9" height="160" fill="#FFFFFF" style="stroke:#4B5563;stroke-width:0.5;" rx="2.5" ry="2.5"/><ellipse cx="1020.3562" cy="736" rx="11" ry="11" fill="#ADD1B2" style="stroke:#181818;stroke-width:1;"/><text x="1015.3562" y="741" fill="#000000" font-size="14" lengthAdjust="spacing" textLength="0" font-family="monospace">C</text><text x="1040.8562" y="739.8889" fill="#111827" font-size="14" lengthAdjust="spacing" textLength="56.7875" font-family="sans-serif">Message</text><line x1="947.55" y1="752" x2="1158.45" y2="752" style="stroke:#4B5563;stroke-width:0.5;"/><text x="952.55" y="766.8889" fill="#000000" font-size="14" lengthAdjust="spacing" textLength="102.725" font-family="sans-serif">-identifiant : UUID</text><text x="952.55" y="780.8889" fill="#000000" font-size="14" lengthAdjust="spacing" textLength="94.85" font-family="sans-serif">-contenu : String</text><text x="952.55" y="794.8889" fill="#000000" font-size="14" lengthAdjust="spacing" textLength="154" font-family="sans-serif">-date_creation : DateTime</text><text x="952.55" y="808.8889" fill="#000000" font-size="14" lengthAdjust="spacing" textLength="97.3" font-family="sans-serif">-est_lu : Boolean</text><text x="952.55" y="822.8889" fill="#000000" font-size="14" lengthAdjust="spacing" textLength="200.9" font-family="sans-serif">-est_epingle_par_eleve : Boolean</text><line x1="947.55" y1="830" x2="1158.45" y2="830" style="stroke:#4B5563;stroke-width:0.5;"/><text x="952.55" y="844.8889" fill="#000000" font-size="14" lengthAdjust="spacing" textLength="171.5" font-family="sans-serif">+marquer_comme_lu() : void</text><text x="952.55" y="858.8889" fill="#000000" font-size="14" lengthAdjust="spacing" textLength="96.95" font-family="sans-serif">+epingler() : void</text><text x="952.55" y="872.8889" fill="#000000" font-size="14" lengthAdjust="spacing" textLength="119.525" font-family="sans-serif">+desepingler() : void</text></g><!--class RendezVous--><g class="entity" data-qualified-name="Rencontres et calendrier.RendezVous" id="ent0016" data-source-line="66"><rect x="223.59" y="976" width="186.825" height="132" fill="#FFFFFF" style="stroke:#4B5563;stroke-width:0.5;" rx="2.5" ry="2.5"/><ellipse cx="272.6338" cy="992" rx="11" ry="11" fill="#ADD1B2" style="stroke:#181818;stroke-width:1;"/><text x="267.6338" y="997" fill="#000000" font-size="14" lengthAdjust="spacing" textLength="0" font-family="monospace">C</text><text x="293.1338" y="995.8889" fill="#111827" font-size="14" lengthAdjust="spacing" textLength="80.2375" font-family="sans-serif">RendezVous</text><line x1="224.59" y1="1008" x2="409.415" y2="1008" style="stroke:#4B5563;stroke-width:0.5;"/><text x="229.59" y="1022.8889" fill="#000000" font-size="14" lengthAdjust="spacing" textLength="102.725" font-family="sans-serif">-identifiant : UUID</text><text x="229.59" y="1036.8889" fill="#000000" font-size="14" lengthAdjust="spacing" textLength="139.2125" font-family="sans-serif">-date_debut : DateTime</text><text x="229.59" y="1050.8889" fill="#000000" font-size="14" lengthAdjust="spacing" textLength="119" font-family="sans-serif">-date_fin : DateTime</text><line x1="224.59" y1="1058" x2="409.415" y2="1058" style="stroke:#4B5563;stroke-width:0.5;"/><text x="229.59" y="1072.8889" fill="#000000" font-size="14" lengthAdjust="spacing" textLength="96.8625" font-family="sans-serif">+modifier() : void</text><text x="229.59" y="1086.8889" fill="#000000" font-size="14" lengthAdjust="spacing" textLength="93.8" font-family="sans-serif">+annuler() : void</text><text x="229.59" y="1100.8889" fill="#000000" font-size="14" lengthAdjust="spacing" textLength="174.825" font-family="sans-serif">+horaires_valides() : Boolean</text></g><!--class EvenementPersonnel--><g class="entity" data-qualified-name="Rencontres et calendrier.EvenementPersonnel" id="ent0017" data-source-line="75"><rect x="23.06" y="990" width="165.875" height="104" fill="#FFFFFF" style="stroke:#4B5563;stroke-width:0.5;" rx="2.5" ry="2.5"/><ellipse cx="38.06" cy="1006" rx="11" ry="11" fill="#ADD1B2" style="stroke:#181818;stroke-width:1;"/><text x="33.06" y="1011" fill="#000000" font-size="14" lengthAdjust="spacing" textLength="0" font-family="monospace">C</text><text x="52.06" y="1009.8889" fill="#111827" font-size="14" lengthAdjust="spacing" textLength="133.875" font-family="sans-serif">EvenementPersonnel</text><line x1="24.06" y1="1022" x2="187.935" y2="1022" style="stroke:#4B5563;stroke-width:0.5;"/><text x="29.06" y="1036.8889" fill="#000000" font-size="14" lengthAdjust="spacing" textLength="102.725" font-family="sans-serif">-identifiant : UUID</text><text x="29.06" y="1050.8889" fill="#000000" font-size="14" lengthAdjust="spacing" textLength="68.3375" font-family="sans-serif">-titre : String</text><text x="29.06" y="1064.8889" fill="#000000" font-size="14" lengthAdjust="spacing" textLength="139.2125" font-family="sans-serif">-date_debut : DateTime</text><text x="29.06" y="1078.8889" fill="#000000" font-size="14" lengthAdjust="spacing" textLength="119" font-family="sans-serif">-date_fin : DateTime</text><line x1="24.06" y1="1086" x2="187.935" y2="1086" style="stroke:#4B5563;stroke-width:0.5;"/></g><!--class Tache--><g class="entity" data-qualified-name="T.ches et notifications.Tache" id="ent0022" data-source-line="88"><rect x="1096.89" y="322" width="174.225" height="118" fill="#FFFFFF" style="stroke:#4B5563;stroke-width:0.5;" rx="2.5" ry="2.5"/><ellipse cx="1160.2838" cy="338" rx="11" ry="11" fill="#ADD1B2" style="stroke:#181818;stroke-width:1;"/><text x="1155.2838" y="343" fill="#000000" font-size="14" lengthAdjust="spacing" textLength="0" font-family="monospace">C</text><text x="1180.7838" y="341.8889" fill="#111827" font-size="14" lengthAdjust="spacing" textLength="38.9375" font-family="sans-serif">Tache</text><line x1="1097.89" y1="354" x2="1270.115" y2="354" style="stroke:#4B5563;stroke-width:0.5;"/><text x="1102.89" y="368.8889" fill="#000000" font-size="14" lengthAdjust="spacing" textLength="102.725" font-family="sans-serif">-identifiant : UUID</text><text x="1102.89" y="382.8889" fill="#000000" font-size="14" lengthAdjust="spacing" textLength="94.85" font-family="sans-serif">-contenu : String</text><text x="1102.89" y="396.8889" fill="#000000" font-size="14" lengthAdjust="spacing" textLength="154" font-family="sans-serif">-date_creation : DateTime</text><text x="1102.89" y="410.8889" fill="#000000" font-size="14" lengthAdjust="spacing" textLength="158.8125" font-family="sans-serif">-est_personnelle : Boolean</text><line x1="1097.89" y1="418" x2="1270.115" y2="418" style="stroke:#4B5563;stroke-width:0.5;"/><text x="1102.89" y="432.8889" fill="#000000" font-size="14" lengthAdjust="spacing" textLength="162.225" font-family="sans-serif">+modifier_si_auteur() : void</text></g><!--class Notification--><g class="entity" data-qualified-name="T.ches et notifications.Notification" id="ent0023" data-source-line="96"><rect x="1088.36" y="75" width="191.2875" height="118" fill="#FFFFFF" style="stroke:#4B5563;stroke-width:0.5;" rx="2.5" ry="2.5"/><ellipse cx="1145.1038" cy="91" rx="11" ry="11" fill="#ADD1B2" style="stroke:#181818;stroke-width:1;"/><text x="1140.1038" y="96" fill="#000000" font-size="14" lengthAdjust="spacing" textLength="0" font-family="monospace">C</text><text x="1165.6038" y="94.8889" fill="#111827" font-size="14" lengthAdjust="spacing" textLength="69.3" font-family="sans-serif">Notification</text><line x1="1089.36" y1="107" x2="1278.6475" y2="107" style="stroke:#4B5563;stroke-width:0.5;"/><text x="1094.36" y="121.8889" fill="#000000" font-size="14" lengthAdjust="spacing" textLength="102.725" font-family="sans-serif">-identifiant : UUID</text><text x="1094.36" y="135.8889" fill="#000000" font-size="14" lengthAdjust="spacing" textLength="135.3625" font-family="sans-serif">-type : TypeNotification</text><text x="1094.36" y="149.8889" fill="#000000" font-size="14" lengthAdjust="spacing" textLength="154" font-family="sans-serif">-date_creation : DateTime</text><text x="1094.36" y="163.8889" fill="#000000" font-size="14" lengthAdjust="spacing" textLength="105.0875" font-family="sans-serif">-est_lue : Boolean</text><line x1="1089.36" y1="171" x2="1278.6475" y2="171" style="stroke:#4B5563;stroke-width:0.5;"/><text x="1094.36" y="185.8889" fill="#000000" font-size="14" lengthAdjust="spacing" textLength="179.2875" font-family="sans-serif">+marquer_comme_lue() : void</text></g><!--class TypeNotification--><g class="entity" data-qualified-name="T.ches et notifications.TypeNotification" id="ent0024" data-source-line="104"><rect x="1314.93" y="96" width="146.1375" height="76" fill="#FFFFFF" style="stroke:#4B5563;stroke-width:0.5;" rx="2.5" ry="2.5"/><ellipse cx="1336.0894" cy="112" rx="11" ry="11" fill="#EB937F" style="stroke:#181818;stroke-width:1;"/><text x="1331.0894" y="117" fill="#000000" font-size="14" lengthAdjust="spacing" textLength="0" font-family="monospace">E</text><text x="1351.4581" y="115.8889" fill="#111827" font-size="14" lengthAdjust="spacing" textLength="100.45" font-family="sans-serif">TypeNotification</text><line x1="1315.93" y1="128" x2="1460.0675" y2="128" style="stroke:#4B5563;stroke-width:0.5;"/><text x="1320.93" y="142.8889" fill="#000000" font-size="14" lengthAdjust="spacing" textLength="133.9625" font-family="sans-serif">MESSAGE_NON_LU</text><text x="1320.93" y="156.8889" fill="#000000" font-size="14" lengthAdjust="spacing" textLength="134.1375" font-family="sans-serif">TACHE_ATTRIBUEE</text><line x1="1315.93" y1="164" x2="1460.0675" y2="164" style="stroke:#4B5563;stroke-width:0.5;"/></g><g class="entity" data-qualified-name="GMN34" id="ent0035" data-source-line="123"><path d="M444.96,1017.5 L444.96,1066.5 A0,0 0 0 0 444.96,1066.5 L713.0412,1066.5 A0,0 0 0 0 713.0412,1066.5 L713.0412,1027.5 L703.0412,1017.5 L568.63,1017.5 L456.66,838.5 L560.63,1017.5 L444.96,1017.5 A0,0 0 0 0 444.96,1017.5" style="stroke:#181818;stroke-width:0.5;" fill="#FEFFDD"/><path d="M703.0412,1017.5 L703.0412,1027.5 L713.0412,1027.5 L703.0412,1017.5" style="stroke:#181818;stroke-width:0.5;" fill="#FEFFDD"/><text x="450.96" y="1032.6111" fill="#000000" font-size="13" lengthAdjust="spacing" textLength="172.0063" font-family="sans-serif">Un élève possède un seul tuteur.</text><text x="450.96" y="1045.6111" fill="#000000" font-size="13" lengthAdjust="spacing" textLength="247.0812" font-family="sans-serif">Un tuteur peut accompagner plusieurs élèves.</text><text x="450.96" y="1058.6111" fill="#000000" font-size="13" lengthAdjust="spacing" textLength="223.1125" font-family="sans-serif">L’affectation est automatique et aléatoire.</text></g><g class="entity" data-qualified-name="GMN37" id="ent0038" data-source-line="129"><path d="M210.02,1171 L210.02,1207 A0,0 0 0 0 210.02,1207 L423.9888,1207 A0,0 0 0 0 423.9888,1207 L423.9888,1181 L413.9888,1171 L321,1171 L317,1108.29 L313,1171 L210.02,1171 A0,0 0 0 0 210.02,1171" style="stroke:#181818;stroke-width:0.5;" fill="#FEFFDD"/><path d="M413.9888,1171 L413.9888,1181 L423.9888,1181 L413.9888,1171" style="stroke:#181818;stroke-width:0.5;" fill="#FEFFDD"/><text x="216.02" y="1186.1111" fill="#000000" font-size="13" lengthAdjust="spacing" textLength="192.9688" font-family="sans-serif">Création, modification et annulation</text><text x="216.02" y="1199.1111" fill="#000000" font-size="13" lengthAdjust="spacing" textLength="108.225" font-family="sans-serif">réservées au tuteur.</text></g><g class="entity" data-qualified-name="GMN40" id="ent0041" data-source-line="134"><path d="M1314.53,569.5 L1314.53,644.5 A0,0 0 0 0 1314.53,644.5 L1549.4612,644.5 A0,0 0 0 0 1549.4612,644.5 L1549.4612,579.5 L1539.4612,569.5 L1395.12,569.5 L1248.51,440.27 L1387.12,569.5 L1314.53,569.5 A0,0 0 0 0 1314.53,569.5" style="stroke:#181818;stroke-width:0.5;" fill="#FEFFDD"/><path d="M1539.4612,569.5 L1539.4612,579.5 L1549.4612,579.5 L1539.4612,569.5" style="stroke:#181818;stroke-width:0.5;" fill="#FEFFDD"/><text x="1320.53" y="584.6111" fill="#000000" font-size="13" lengthAdjust="spacing" textLength="190.2063" font-family="sans-serif">Un seul objet couvre la tâche de suivi</text><text x="1320.53" y="597.6111" fill="#000000" font-size="13" lengthAdjust="spacing" textLength="212.3875" font-family="sans-serif">et l’élément personnel servant de tâche,</text><text x="1320.53" y="610.6111" fill="#000000" font-size="13" lengthAdjust="spacing" textLength="79.3813" font-family="sans-serif">note ou mémo.</text><text x="1320.53" y="623.6111" fill="#000000" font-size="13" lengthAdjust="spacing" textLength="213.9313" font-family="sans-serif">Une tâche attribuée n’est pas modifiable</text><text x="1320.53" y="636.6111" fill="#000000" font-size="13" lengthAdjust="spacing" textLength="59.3125" font-family="sans-serif">par l’élève.</text></g><g class="entity" data-qualified-name="GMN43" id="ent0044" data-source-line="142"><path d="M594.21,589 L594.21,625 A0,0 0 0 0 594.21,625 L829.7913,625 A0,0 0 0 0 829.7913,625 L829.7913,599 L819.7913,589 L694.46,589 L549.3,475.37 L686.46,589 L594.21,589 A0,0 0 0 0 594.21,589" style="stroke:#181818;stroke-width:0.5;" fill="#FEFFDD"/><path d="M819.7913,589 L819.7913,599 L829.7913,599 L819.7913,589" style="stroke:#181818;stroke-width:0.5;" fill="#FEFFDD"/><text x="600.21" y="604.1111" fill="#000000" font-size="13" lengthAdjust="spacing" textLength="214.5813" font-family="sans-serif">Deux rôles uniquement : Élève et Tuteur.</text><text x="600.21" y="617.1111" fill="#000000" font-size="13" lengthAdjust="spacing" textLength="174.1188" font-family="sans-serif">Aucun administrateur applicatif.</text></g><!--reverse link Utilisateur to Eleve--><g class="link" data-entity-1="ent0002" data-entity-2="ent0003" id="lnk6" data-source-line="38" data-link-type="extension"><path d="M447.8976,493.211 C453.1676,532.591 456.48,557.28 459.89,582.77" style="stroke:#4B5563;stroke-width:1;" fill="none" id="Utilisateur-backto-Eleve" codeLine="38"/><polygon points="445.51,475.37,441.9506,494.0068,453.8445,492.4151,445.51,475.37" fill="none" style="stroke:#4B5563;stroke-width:1;stroke-linejoin:miter;stroke-miterlimit:10;"/></g><!--reverse link Utilisateur to Tuteur--><g class="link" data-entity-1="ent0002" data-entity-2="ent0004" id="lnk7" data-source-line="39" data-link-type="extension"><path d="M396.0232,492.438 C382.8332,531.818 374.31,557.28 365.78,582.77" style="stroke:#4B5563;stroke-width:1;" fill="none" id="Utilisateur-backto-Tuteur" codeLine="39"/><polygon points="401.74,475.37,390.3339,490.5324,401.7126,494.3436,401.74,475.37" fill="none" style="stroke:#4B5563;stroke-width:1;stroke-linejoin:miter;stroke-miterlimit:10;"/></g><!--link Tuteur to Accompagnement--><g class="link" data-entity-1="ent0004" data-entity-2="ent0005" id="lnk8" data-source-line="40" data-link-type="association"><path d="M364.81,631.28 C371.91,655.52 382,690 382,690 C382,690 401.19,730.22 416.25,761.79" style="stroke:#4B5563;stroke-width:1;" fill="none" id="Tuteur-Accompagnement" codeLine="40"/><polygon points="388.8335,687.1517,388.2509,677.659,382.7825,679.8144,388.8335,687.1517" fill="#000000" style="stroke:#000000;stroke-width:1;stroke-linejoin:miter;stroke-miterlimit:10;"/><text x="396" y="686.1111" fill="#000000" font-size="13" lengthAdjust="spacing" textLength="46.9625" font-family="sans-serif">encadre</text><text x="358.6872" y="649.2785" fill="#000000" font-size="13" lengthAdjust="spacing" textLength="7.2312" font-family="sans-serif">1</text><text x="392.6017" y="751.2166" fill="#000000" font-size="13" lengthAdjust="spacing" textLength="19.4188" font-family="sans-serif">0..*</text></g><!--link Eleve to Accompagnement--><g class="link" data-entity-1="ent0003" data-entity-2="ent0005" id="lnk9" data-source-line="41" data-link-type="association"><path d="M459.44,631.42 C454.51,663.89 445.55,722.95 439.68,761.58" style="stroke:#4B5563;stroke-width:1;" fill="none" id="Eleve-Accompagnement" codeLine="41"/><polygon points="457.0395,687.4434,461.3028,678.9419,455.4915,678.0596,457.0395,687.4434" fill="#000000" style="stroke:#000000;stroke-width:1;stroke-linejoin:miter;stroke-miterlimit:10;"/><text x="466.79" y="686.1111" fill="#000000" font-size="13" lengthAdjust="spacing" textLength="66.5438" font-family="sans-serif">bénéficie de</text><text x="450.7464" y="649.0679" fill="#000000" font-size="13" lengthAdjust="spacing" textLength="7.2312" font-family="sans-serif">1</text><text x="433.0596" y="751.2512" fill="#000000" font-size="13" lengthAdjust="spacing" textLength="7.2312" font-family="sans-serif">1</text></g><!--reverse link Conversation to Message--><g class="link" data-entity-1="ent0011" data-entity-2="ent0012" id="lnk13" data-source-line="61" data-link-type="composition"><path d="M1022.5215,657.0121 C1027.0715,678.1821 1030.42,693.79 1035.94,719.53" style="stroke:#4B5563;stroke-width:1;" fill="none" id="Conversation-backto-Message" codeLine="61"/><polygon points="1020,645.28,1017.3501,651.9866,1022.5215,657.0121,1025.1715,650.3055,1020,645.28" fill="#4B5563" style="stroke:#4B5563;stroke-width:1;stroke-linejoin:miter;stroke-miterlimit:10;"/><polygon points="1034.8793,687.3887,1035.8546,677.9282,1030.1076,679.1617,1034.8793,687.3887" fill="#000000" style="stroke:#000000;stroke-width:1;stroke-linejoin:miter;stroke-miterlimit:10;"/><text x="1042.83" y="686.1111" fill="#000000" font-size="13" lengthAdjust="spacing" textLength="45.5" font-family="sans-serif">contient</text><text x="1013.794" y="663.0877" fill="#000000" font-size="13" lengthAdjust="spacing" textLength="7.2312" font-family="sans-serif">1</text><text x="1014.6755" y="709.1671" fill="#000000" font-size="13" lengthAdjust="spacing" textLength="19.4188" font-family="sans-serif">0..*</text></g><!--link Message to Utilisateur--><g class="link" data-entity-1="ent0012" data-entity-2="ent0002" id="lnk14" data-source-line="62" data-link-type="dependency"><path d="M1116.82,719.74 C1147.2,682.01 1177,645 1177,645 C1177,645 1177,528 1177,528 C1177,528 780.1264,450.1229 567.0764,408.3129" style="stroke:#4B5563;stroke-width:1;" fill="none" id="Message-to-Utilisateur" codeLine="62"/><polygon points="562.17,407.35,570.2313,413.0083,567.0764,408.3129,571.7718,405.158,562.17,407.35" fill="#4B5563" style="stroke:#4B5563;stroke-width:1;stroke-linejoin:miter;stroke-miterlimit:10;"/><polygon points="1177.6496,604.5355,1184.071,611.5509,1186.9682,606.4367,1177.6496,604.5355" fill="#000000" style="stroke:#000000;stroke-width:1;stroke-linejoin:miter;stroke-miterlimit:10;"/><text x="1191" y="610.6111" fill="#000000" font-size="13" lengthAdjust="spacing" textLength="36.8062" font-family="sans-serif">auteur</text><text x="1102.6765" y="709.124" fill="#000000" font-size="13" lengthAdjust="spacing" textLength="19.4188" font-family="sans-serif">0..*</text><text x="569.8469" y="405.6087" fill="#000000" font-size="13" lengthAdjust="spacing" textLength="7.2312" font-family="sans-serif">1</text></g><!--link Tuteur to RendezVous--><g class="link" data-entity-1="ent0004" data-entity-2="ent0016" id="lnk18" data-source-line="82" data-link-type="dependency"><path d="M327.18,631.48 C284.08,664.32 211,720 211,720 C211,720 211,904 211,904 C211,904 236.1206,936.4652 263.4206,971.7552" style="stroke:#4B5563;stroke-width:1;" fill="none" id="Tuteur-to-RendezVous" codeLine="82"/><polygon points="266.48,975.71,264.1369,966.1439,263.4206,971.7552,257.8093,971.0389,266.48,975.71" fill="#4B5563" style="stroke:#4B5563;stroke-width:1;stroke-linejoin:miter;stroke-miterlimit:10;"/><polygon points="215.0791,804.9145,219.6336,796.5654,213.8563,795.4828,215.0791,804.9145" fill="#000000" style="stroke:#000000;stroke-width:1;stroke-linejoin:miter;stroke-miterlimit:10;"/><text x="225" y="803.6111" fill="#000000" font-size="13" lengthAdjust="spacing" textLength="62.075" font-family="sans-serif">crée et gère</text><text x="311.8421" y="649.1425" fill="#000000" font-size="13" lengthAdjust="spacing" textLength="7.2312" font-family="sans-serif">1</text><text x="241.3118" y="965.3146" fill="#000000" font-size="13" lengthAdjust="spacing" textLength="19.4188" font-family="sans-serif">0..*</text></g><!--link Accompagnement to RendezVous--><g class="link" data-entity-1="ent0005" data-entity-2="ent0016" id="lnk19" data-source-line="83" data-link-type="dependency"><path d="M415.72,838.5 C397.85,875.15 372.4702,927.2052 351.0102,971.2452" style="stroke:#4B5563;stroke-width:1;" fill="none" id="Accompagnement-to-RendezVous" codeLine="83"/><polygon points="348.82,975.74,356.3582,969.4016,351.0102,971.2452,349.1666,965.8972,348.82,975.74" fill="#4B5563" style="stroke:#4B5563;stroke-width:1;stroke-linejoin:miter;stroke-miterlimit:10;"/><polygon points="381.8191,923.9944,388.4242,917.1517,383.1407,914.5761,381.8191,923.9944" fill="#000000" style="stroke:#000000;stroke-width:1;stroke-linejoin:miter;stroke-miterlimit:10;"/><text x="393.01" y="923.1111" fill="#000000" font-size="13" lengthAdjust="spacing" textLength="49.8875" font-family="sans-serif">organise</text><text x="405.1312" y="856.0642" fill="#000000" font-size="13" lengthAdjust="spacing" textLength="7.2312" font-family="sans-serif">1</text><text x="332.2839" y="964.893" fill="#000000" font-size="13" lengthAdjust="spacing" textLength="19.4188" font-family="sans-serif">0..*</text></g><!--link Utilisateur to EvenementPersonnel--><g class="link" data-entity-1="ent0002" data-entity-2="ent0017" id="lnk20" data-source-line="84" data-link-type="dependency"><path d="M350.57,475.29 C325.29,503.9 304,528 304,528 C304,528 179,675 179,675 C179,675 137.2981,884.0966 117.2081,984.8166" style="stroke:#4B5563;stroke-width:1;" fill="none" id="Utilisateur-to-EvenementPersonnel" codeLine="84"/><polygon points="116.23,989.72,121.9132,981.6763,117.2081,984.8166,114.0678,980.1114,116.23,989.72" fill="#4B5563" style="stroke:#4B5563;stroke-width:1;stroke-linejoin:miter;stroke-miterlimit:10;"/><polygon points="181.918,687.0459,188.3564,680.0461,183.0124,677.5985,181.918,687.0459" fill="#000000" style="stroke:#000000;stroke-width:1;stroke-linejoin:miter;stroke-miterlimit:10;"/><text x="193" y="686.1111" fill="#000000" font-size="13" lengthAdjust="spacing" textLength="49.1562" font-family="sans-serif">possède</text><text x="337.0001" y="493.1178" fill="#000000" font-size="13" lengthAdjust="spacing" textLength="7.2312" font-family="sans-serif">1</text><text x="97.3566" y="978.9325" fill="#000000" font-size="13" lengthAdjust="spacing" textLength="19.4188" font-family="sans-serif">0..*</text></g><!--link Tache to Utilisateur--><g class="link" data-entity-1="ent0022" data-entity-2="ent0002" id="lnk25" data-source-line="109" data-link-type="dependency"><path d="M1096.42,381 C964.68,381 719.76,381 567.1,381" style="stroke:#4B5563;stroke-width:1;" fill="none" id="Tache-to-Utilisateur" codeLine="109"/><polygon points="562.1,381,571.1,385,567.1,381,571.1,377,562.1,381" fill="#4B5563" style="stroke:#4B5563;stroke-width:1;stroke-linejoin:miter;stroke-miterlimit:10;"/><polygon points="803.85,370.5,812.8951,373.4389,812.8951,367.5611,803.85,370.5" fill="#000000" style="stroke:#000000;stroke-width:1;stroke-linejoin:miter;stroke-miterlimit:10;"/><text x="817.85" y="374.1111" fill="#000000" font-size="13" lengthAdjust="spacing" textLength="36.8062" font-family="sans-serif">auteur</text><text x="1069.3977" y="377.5728" fill="#000000" font-size="13" lengthAdjust="spacing" textLength="19.4188" font-family="sans-serif">0..*</text><text x="569.7728" y="377.7353" fill="#000000" font-size="13" lengthAdjust="spacing" textLength="7.2312" font-family="sans-serif">1</text></g><!--link Tache to Eleve--><g class="link" data-entity-1="ent0022" data-entity-2="ent0003" id="lnk26" data-source-line="110" data-link-type="dependency"><path d="M1096.71,403 C928.74,443.4 577,528 577,528 C577,528 534.6265,556.9965 501.0265,579.9865" style="stroke:#4B5563;stroke-width:1;" fill="none" id="Tache-to-Eleve" codeLine="110"/><polygon points="496.9,582.81,506.5865,581.029,501.0265,579.9865,502.0689,574.4266,496.9,582.81" fill="#4B5563" style="stroke:#4B5563;stroke-width:1;stroke-linejoin:miter;stroke-miterlimit:10;"/><polygon points="665.3171,513.924,674.8246,514.1651,673.1505,508.5307,665.3171,513.924" fill="#000000" style="stroke:#000000;stroke-width:1;stroke-linejoin:miter;stroke-miterlimit:10;"/><text x="679.11" y="516.1111" fill="#000000" font-size="13" lengthAdjust="spacing" textLength="67.1938" font-family="sans-serif">destinataire</text><text x="1069.4099" y="401.4431" fill="#000000" font-size="13" lengthAdjust="spacing" textLength="19.4188" font-family="sans-serif">0..*</text><text x="481.9738" y="572.0568" fill="#000000" font-size="13" lengthAdjust="spacing" textLength="21.6125" font-family="sans-serif">0..1</text></g><!--link Notification to Utilisateur--><g class="link" data-entity-1="ent0023" data-entity-2="ent0002" id="lnk27" data-source-line="111" data-link-type="dependency"><path d="M1088.12,166.28 C954.47,209.88 716.5235,287.5095 567.0035,336.2795" style="stroke:#4B5563;stroke-width:1;" fill="none" id="Notification-to-Utilisateur" codeLine="111"/><polygon points="562.25,337.83,572.0467,338.8419,567.0035,336.2795,569.5659,331.2363,562.25,337.83" fill="#4B5563" style="stroke:#4B5563;stroke-width:1;stroke-linejoin:miter;stroke-miterlimit:10;"/><polygon points="898.0965,232.0507,907.6071,232.0395,905.7842,226.4515,898.0965,232.0507" fill="#000000" style="stroke:#000000;stroke-width:1;stroke-linejoin:miter;stroke-miterlimit:10;"/><text x="911.85" y="234.1111" fill="#000000" font-size="13" lengthAdjust="spacing" textLength="67.1938" font-family="sans-serif">destinataire</text><text x="1061.0676" y="165.3649" fill="#000000" font-size="13" lengthAdjust="spacing" textLength="19.4188" font-family="sans-serif">0..*</text><text x="569.9315" y="332.0696" fill="#000000" font-size="13" lengthAdjust="spacing" textLength="7.2312" font-family="sans-serif">1</text></g><!--link Notification to Message--><g class="link" data-entity-1="ent0023" data-entity-2="ent0012" id="lnk28" data-source-line="112" data-link-type="dependency"><path d="M1240.93,193.41 C1347.62,302.89 1567,528 1567,528 C1567,528 1567,645 1567,645 C1567,645 1315.1997,720.445 1164.5997,765.565" style="stroke:#4B5563;stroke-width:1;" fill="none" id="Notification-to-Message" codeLine="112"/><polygon points="1159.81,767,1169.5794,768.2487,1164.5997,765.565,1167.2834,760.5853,1159.81,767" fill="#4B5563" style="stroke:#4B5563;stroke-width:1;stroke-linejoin:miter;stroke-miterlimit:10;"/><polygon points="1562.1488,517.4561,1566.258,508.8791,1560.4318,508.1018,1562.1488,517.4561" fill="#000000" style="stroke:#000000;stroke-width:1;stroke-linejoin:miter;stroke-miterlimit:10;"/><text x="1571.81" y="516.1111" fill="#000000" font-size="13" lengthAdjust="spacing" textLength="53.4625" font-family="sans-serif">concerne</text><text x="1227.4379" y="211.142" fill="#000000" font-size="13" lengthAdjust="spacing" textLength="19.4188" font-family="sans-serif">0..*</text><text x="1167.3448" y="761.5806" fill="#000000" font-size="13" lengthAdjust="spacing" textLength="21.6125" font-family="sans-serif">0..1</text></g><!--link Notification to Tache--><g class="link" data-entity-1="ent0023" data-entity-2="ent0022" id="lnk29" data-source-line="113" data-link-type="dependency"><path d="M1184,193.37 C1184,232.15 1184,277.87 1184,316.65" style="stroke:#4B5563;stroke-width:1;" fill="none" id="Notification-to-Tache" codeLine="113"/><polygon points="1184,321.65,1188,312.65,1184,316.65,1180,312.65,1184,321.65" fill="#4B5563" style="stroke:#4B5563;stroke-width:1;stroke-linejoin:miter;stroke-miterlimit:10;"/><polygon points="1189,235.5,1191.9389,226.4549,1186.0611,226.4549,1189,235.5" fill="#000000" style="stroke:#000000;stroke-width:1;stroke-linejoin:miter;stroke-miterlimit:10;"/><text x="1198" y="234.1111" fill="#000000" font-size="13" lengthAdjust="spacing" textLength="53.4625" font-family="sans-serif">concerne</text><text x="1163.9253" y="211.0973" fill="#000000" font-size="13" lengthAdjust="spacing" textLength="19.4188" font-family="sans-serif">0..*</text><text x="1161.8211" y="311.1472" fill="#000000" font-size="13" lengthAdjust="spacing" textLength="21.6125" font-family="sans-serif">0..1</text></g><!--reverse link Accompagnement to Conversation--><g class="link" data-entity-1="ent0005" data-entity-2="ent0011" id="lnk30" data-source-line="116" data-link-type="composition"><path d="M544.0846,757.3863 C640.6546,720.8763 762,675 762,675 C762,675 815.12,660.76 872.38,645.42" style="stroke:#4B5563;stroke-width:1;" fill="none" id="Accompagnement-backto-Conversation" codeLine="116"/><polygon points="532.86,761.63,539.8868,763.2497,544.0846,757.3863,537.0577,755.7666,532.86,761.63" fill="#4B5563" style="stroke:#4B5563;stroke-width:1;stroke-linejoin:miter;stroke-miterlimit:10;"/><polygon points="771.7323,680.886,762.2228,681.0241,764.1201,686.5873,771.7323,680.886" fill="#000000" style="stroke:#000000;stroke-width:1;stroke-linejoin:miter;stroke-miterlimit:10;"/><text x="776" y="686.1111" fill="#000000" font-size="13" lengthAdjust="spacing" textLength="50.4562" font-family="sans-serif">structure</text><text x="542.2692" y="751.0291" fill="#000000" font-size="13" lengthAdjust="spacing" textLength="7.2312" font-family="sans-serif">1</text><text x="849.7393" y="660.4442" fill="#000000" font-size="13" lengthAdjust="spacing" textLength="7.2312" font-family="sans-serif">1</text></g><!--link Conversation to RendezVous--><!--link Conversation to Tache--><!--link Utilisateur to Conversation--></g></svg>